<svg width="315" height="27" viewBox="0 0 315 27" fill="none" xmlns="http://www.w3.org/2000/svg">
<rect x="0.5" y="0.5" width="314" height="26" rx="4.5" fill="#090909" stroke="#343434"/>
<path d="M77.4444 24L70.4444 17C69.8889 17.4444 69.25 17.7963 68.5278 18.0556C67.8056 18.3148 67.037 18.4444 66.2222 18.4444C64.2037 18.4444 62.4954 17.7454 61.0972 16.3472C59.6991 14.9491 59 13.2407 59 11.2222C59 9.2037 59.6991 7.49537 61.0972 6.09722C62.4954 4.69907 64.2037 4 66.2222 4C68.2407 4 69.9491 4.69907 71.3472 6.09722C72.7454 7.49537 73.4444 9.2037 73.4444 11.2222C73.4444 12.037 73.3148 12.8056 73.0556 13.5278C72.7963 14.25 72.4444 14.8889 72 15.4444L79 22.4444L77.4444 24ZM66.2222 16.2222C67.6111 16.2222 68.7917 15.7361 69.7639 14.7639C70.7361 13.7917 71.2222 12.6111 71.2222 11.2222C71.2222 9.83333 70.7361 8.65278 69.7639 7.68056C68.7917 6.70833 67.6111 6.22222 66.2222 6.22222C64.8333 6.22222 63.6528 6.70833 62.6806 7.68056C61.7083 8.65278 61.2222 9.83333 61.2222 11.2222C61.2222 12.6111 61.7083 13.7917 62.6806 14.7639C63.6528 15.7361 64.8333 16.2222 66.2222 16.2222Z" fill="#343434"/>
<path d="M85.732 18.12C85.076 18.12 84.448 18.028 83.848 17.844C83.248 17.652 82.772 17.408 82.42 17.112L82.96 15.9C83.296 16.164 83.712 16.384 84.208 16.56C84.704 16.736 85.212 16.824 85.732 16.824C86.172 16.824 86.528 16.776 86.8 16.68C87.072 16.584 87.272 16.456 87.4 16.296C87.528 16.128 87.592 15.94 87.592 15.732C87.592 15.476 87.5 15.272 87.316 15.12C87.132 14.96 86.892 14.836 86.596 14.748C86.308 14.652 85.984 14.564 85.624 14.484C85.272 14.404 84.916 14.312 84.556 14.208C84.204 14.096 83.88 13.956 83.584 13.788C83.296 13.612 83.06 13.38 82.876 13.092C82.692 12.804 82.6 12.436 82.6 11.988C82.6 11.532 82.72 11.116 82.96 10.74C83.208 10.356 83.58 10.052 84.076 9.828C84.58 9.596 85.216 9.48 85.984 9.48C86.488 9.48 86.988 9.544 87.484 9.672C87.98 9.8 88.412 9.984 88.78 10.224L88.288 11.436C87.912 11.212 87.524 11.048 87.124 10.944C86.724 10.832 86.34 10.776 85.972 10.776C85.54 10.776 85.188 10.828 84.916 10.932C84.652 11.036 84.456 11.172 84.328 11.34C84.208 11.508 84.148 11.7 84.148 11.916C84.148 12.172 84.236 12.38 84.412 12.54C84.596 12.692 84.832 12.812 85.12 12.9C85.416 12.988 85.744 13.076 86.104 13.164C86.464 13.244 86.82 13.336 87.172 13.44C87.532 13.544 87.856 13.68 88.144 13.848C88.44 14.016 88.676 14.244 88.852 14.532C89.036 14.82 89.128 15.184 89.128 15.624C89.128 16.072 89.004 16.488 88.756 16.872C88.516 17.248 88.144 17.552 87.64 17.784C87.136 18.008 86.5 18.12 85.732 18.12ZM93.5429 18.084C92.8309 18.084 92.2069 17.944 91.6709 17.664C91.1429 17.376 90.7309 16.984 90.4349 16.488C90.1469 15.992 90.0029 15.428 90.0029 14.796C90.0029 14.156 90.1429 13.592 90.4229 13.104C90.7109 12.608 91.1029 12.22 91.5989 11.94C92.1029 11.66 92.6749 11.52 93.3149 11.52C93.9389 11.52 94.4949 11.656 94.9829 11.928C95.4709 12.2 95.8549 12.584 96.1349 13.08C96.4149 13.576 96.5549 14.16 96.5549 14.832C96.5549 14.896 96.5509 14.968 96.5429 15.048C96.5429 15.128 96.5389 15.204 96.5309 15.276H91.1909V14.28H95.7389L95.1509 14.592C95.1589 14.224 95.0829 13.9 94.9229 13.62C94.7629 13.34 94.5429 13.12 94.2629 12.96C93.9909 12.8 93.6749 12.72 93.3149 12.72C92.9469 12.72 92.6229 12.8 92.3429 12.96C92.0709 13.12 91.8549 13.344 91.6949 13.632C91.5429 13.912 91.4669 14.244 91.4669 14.628V14.868C91.4669 15.252 91.5549 15.592 91.7309 15.888C91.9069 16.184 92.1549 16.412 92.4749 16.572C92.7949 16.732 93.1629 16.812 93.5789 16.812C93.9389 16.812 94.2629 16.756 94.5509 16.644C94.8389 16.532 95.0949 16.356 95.3189 16.116L96.1229 17.04C95.8349 17.376 95.4709 17.636 95.0309 17.82C94.5989 17.996 94.1029 18.084 93.5429 18.084ZM101.768 18V16.704L101.684 16.428V14.16C101.684 13.72 101.552 13.38 101.288 13.14C101.024 12.892 100.624 12.768 100.088 12.768C99.7279 12.768 99.3719 12.824 99.0199 12.936C98.6759 13.048 98.3839 13.204 98.1439 13.404L97.5559 12.312C97.8999 12.048 98.3079 11.852 98.7799 11.724C99.2599 11.588 99.7559 11.52 100.268 11.52C101.196 11.52 101.912 11.744 102.416 12.192C102.928 12.632 103.184 13.316 103.184 14.244V18H101.768ZM99.7519 18.084C99.2719 18.084 98.8519 18.004 98.4919 17.844C98.1319 17.676 97.8519 17.448 97.6519 17.16C97.4599 16.864 97.3639 16.532 97.3639 16.164C97.3639 15.804 97.4479 15.48 97.6159 15.192C97.7919 14.904 98.0759 14.676 98.4679 14.508C98.8599 14.34 99.3799 14.256 100.028 14.256H101.888V15.252H100.136C99.6239 15.252 99.2799 15.336 99.1039 15.504C98.9279 15.664 98.8399 15.864 98.8399 16.104C98.8399 16.376 98.9479 16.592 99.1639 16.752C99.3799 16.912 99.6799 16.992 100.064 16.992C100.432 16.992 100.76 16.908 101.048 16.74C101.344 16.572 101.556 16.324 101.684 15.996L101.936 16.896C101.792 17.272 101.532 17.564 101.156 17.772C100.788 17.98 100.32 18.084 99.7519 18.084ZM105.109 18V11.592H106.537V13.356L106.369 12.84C106.561 12.408 106.861 12.08 107.269 11.856C107.685 11.632 108.201 11.52 108.817 11.52V12.948C108.753 12.932 108.693 12.924 108.637 12.924C108.581 12.916 108.525 12.912 108.469 12.912C107.901 12.912 107.449 13.08 107.113 13.416C106.777 13.744 106.609 14.236 106.609 14.892V18H105.109ZM112.971 18.084C112.299 18.084 111.699 17.944 111.171 17.664C110.651 17.376 110.243 16.984 109.947 16.488C109.651 15.992 109.503 15.428 109.503 14.796C109.503 14.156 109.651 13.592 109.947 13.104C110.243 12.608 110.651 12.22 111.171 11.94C111.699 11.66 112.299 11.52 112.971 11.52C113.595 11.52 114.143 11.648 114.615 11.904C115.095 12.152 115.459 12.52 115.707 13.008L114.555 13.68C114.363 13.376 114.127 13.152 113.847 13.008C113.575 12.864 113.279 12.792 112.959 12.792C112.591 12.792 112.259 12.872 111.963 13.032C111.667 13.192 111.435 13.424 111.267 13.728C111.099 14.024 111.015 14.38 111.015 14.796C111.015 15.212 111.099 15.572 111.267 15.876C111.435 16.172 111.667 16.4 111.963 16.56C112.259 16.72 112.591 16.8 112.959 16.8C113.279 16.8 113.575 16.728 113.847 16.584C114.127 16.44 114.363 16.216 114.555 15.912L115.707 16.584C115.459 17.064 115.095 17.436 114.615 17.7C114.143 17.956 113.595 18.084 112.971 18.084ZM120.581 11.52C121.093 11.52 121.549 11.62 121.949 11.82C122.357 12.02 122.677 12.328 122.909 12.744C123.141 13.152 123.257 13.68 123.257 14.328V18H121.757V14.52C121.757 13.952 121.621 13.528 121.349 13.248C121.085 12.968 120.713 12.828 120.233 12.828C119.881 12.828 119.569 12.9 119.297 13.044C119.025 13.188 118.813 13.404 118.661 13.692C118.517 13.972 118.445 14.328 118.445 14.76V18H116.945V9.096H118.445V13.32L118.121 12.792C118.345 12.384 118.669 12.072 119.093 11.856C119.525 11.632 120.021 11.52 120.581 11.52Z" fill="white"/>
<rect x="291" y="3" width="21" height="21" rx="5" fill="#343434"/>
<path d="M307.756 21L302.156 15.4C301.711 15.7556 301.2 16.037 300.622 16.2444C300.044 16.4519 299.43 16.5556 298.778 16.5556C297.163 16.5556 295.796 15.9963 294.678 14.8778C293.559 13.7593 293 12.3926 293 10.7778C293 9.16296 293.559 7.7963 294.678 6.67778C295.796 5.55926 297.163 5 298.778 5C300.393 5 301.759 5.55926 302.878 6.67778C303.996 7.7963 304.556 9.16296 304.556 10.7778C304.556 11.4296 304.452 12.0444 304.244 12.6222C304.037 13.2 303.756 13.7111 303.4 14.1556L309 19.7556L307.756 21ZM298.778 14.7778C299.889 14.7778 300.833 14.3889 301.611 13.6111C302.389 12.8333 302.778 11.8889 302.778 10.7778C302.778 9.66667 302.389 8.72222 301.611 7.94444C300.833 7.16667 299.889 6.77778 298.778 6.77778C297.667 6.77778 296.722 7.16667 295.944 7.94444C295.167 8.72222 294.778 9.66667 294.778 10.7778C294.778 11.8889 295.167 12.8333 295.944 13.6111C296.722 14.3889 297.667 14.7778 298.778 14.7778Z" fill="#090909"/>
</svg>
