<svg width="369" height="44" viewBox="0 0 369 44" fill="none" xmlns="http://www.w3.org/2000/svg">
<path d="M17.6877 32.2675C17.6877 30.9914 18.1206 29.9205 18.9865 29.0546C19.898 28.1431 20.9917 27.6874 22.2678 27.6874H32.7269L30.9495 22.6287C30.2204 20.7602 29.4912 19.0056 28.762 17.365C28.0784 15.6788 27.2809 14.1521 26.3694 12.7849C25.5491 11.4177 24.6148 10.6885 23.5666 10.5974C22.4729 10.6885 21.4931 11.4177 20.6272 12.7849C19.7613 14.1521 18.9637 15.6788 18.2346 17.365C17.551 19.0056 16.8446 20.7602 16.1154 22.6287L9.6212 40.4023C9.16547 41.3594 8.57301 42.1569 7.84384 42.7949C7.16024 43.3874 6.11205 43.6836 4.69928 43.6836C3.37765 43.6836 2.28389 43.2279 1.418 42.3164C0.59768 41.4049 0.233094 40.3112 0.32424 39.0351C0.369814 38.4427 0.506534 37.8958 0.7344 37.3945L8.254 17.9802C10.3504 12.876 12.4467 8.75164 14.5431 5.60708C16.5939 2.50809 19.6018 0.935808 23.5666 0.890235C27.486 0.935808 30.471 2.50809 32.5218 5.60708C34.6182 8.66049 36.7146 12.7849 38.8109 17.9802L46.3305 37.3945C46.5584 37.8958 46.6951 38.4427 46.7407 39.0351C46.8318 40.3112 46.4445 41.4049 45.5786 42.3164C44.7582 43.2279 43.6873 43.6836 42.3656 43.6836C40.8617 43.6836 39.7452 43.3874 39.016 42.7949C38.3324 42.1569 37.7627 41.3594 37.307 40.4023L36.0082 36.8476H22.2678C20.9917 36.8476 19.9208 36.3919 19.0549 35.4804C18.1434 34.6145 17.6877 33.5435 17.6877 32.2675ZM68.9577 32.2675C68.9577 30.9914 69.3906 29.9205 70.2565 29.0546C71.168 28.1431 72.2618 27.6874 73.5378 27.6874H83.9969L82.2195 22.6287C81.4904 20.7602 80.7612 19.0056 80.032 17.365C79.3484 15.6788 78.5509 14.1521 77.6394 12.7849C76.8191 11.4177 75.8848 10.6885 74.8367 10.5974C73.7429 10.6885 72.7631 11.4177 71.8972 12.7849C71.0313 14.1521 70.2337 15.6788 69.5046 17.365C68.821 19.0056 68.1146 20.7602 67.3854 22.6287L60.8912 40.4023C60.4355 41.3594 59.843 42.1569 59.1138 42.7949C58.4302 43.3874 57.3821 43.6836 55.9693 43.6836C54.6477 43.6836 53.5539 43.2279 52.688 42.3164C51.8677 41.4049 51.5031 40.3112 51.5942 39.0351C51.6398 38.4427 51.7765 37.8958 52.0044 37.3945L59.524 17.9802C61.6204 12.876 63.7168 8.75164 65.8131 5.60708C67.8639 2.50809 70.8718 0.935808 74.8367 0.890235C78.756 0.935808 81.741 2.50809 83.7918 5.60708C85.8882 8.66049 87.9846 12.7849 90.0809 17.9802L97.6005 37.3945C97.8284 37.8958 97.9651 38.4427 98.0107 39.0351C98.1018 40.3112 97.7145 41.4049 96.8486 42.3164C96.0283 43.2279 94.9573 43.6836 93.6357 43.6836C92.1317 43.6836 91.0152 43.3874 90.286 42.7949C89.6024 42.1569 89.0327 41.3594 88.577 40.4023L87.2782 36.8476H73.5378C72.2618 36.8476 71.1908 36.3919 70.3249 35.4804C69.4134 34.6145 68.9577 33.5435 68.9577 32.2675ZM114.075 39.3769C113.802 42.1113 112.298 43.5925 109.564 43.8203C108.287 43.8203 107.171 43.4102 106.214 42.5898C105.302 41.7239 104.847 40.653 104.847 39.3769V6.97428C104.892 5.69822 105.371 4.65004 106.282 3.82972C107.194 2.96382 108.287 2.53088 109.564 2.53088H112.913H121.321H138.206C138.48 2.53088 138.753 2.55366 139.027 2.59924H139.437C142.627 2.69038 145.247 3.41956 147.298 4.78676C149.349 6.15396 150.83 7.72624 151.742 9.5036C152.653 11.2354 153.109 12.99 153.109 14.7673C153.109 16.5903 152.653 18.3904 151.742 20.1678C150.876 21.8995 149.395 23.449 147.298 24.8162C145.247 26.1834 142.627 26.9126 139.437 27.0038H127.405C127.77 29.2824 128.522 30.9686 129.661 32.0624C130.755 33.1562 132.145 33.703 133.831 33.703H148.597C149.873 33.7486 150.921 34.2271 151.742 35.1386C152.608 36.0501 153.041 37.1438 153.041 38.4199C152.995 39.6504 152.539 40.6985 151.673 41.5644C150.853 42.3848 149.828 42.8177 148.597 42.8633H132.601C129.228 42.9089 126.175 41.5872 123.441 38.8984C120.706 36.2096 119.043 33.0194 118.45 29.328C117.63 25.2264 117.22 22.9249 117.22 22.4236C117.22 21.1476 117.653 20.0766 118.519 19.2107C119.43 18.2993 120.524 17.8435 121.8 17.8435H139.847C140.713 17.7979 141.419 17.6157 141.966 17.2966C142.559 16.9321 142.992 16.5447 143.265 16.1345C143.538 15.6788 143.675 15.223 143.675 14.7673C143.675 14.3116 143.538 13.8786 143.265 13.4685C142.992 13.0127 142.559 12.6254 141.966 12.3064C141.419 11.9418 140.713 11.7367 139.847 11.6911H121.321H115.853C114.668 11.7367 114.075 12.3291 114.075 13.4685V39.3769ZM176.078 11.6911C174.346 11.7823 172.888 12.4431 171.703 13.6736C170.563 14.904 169.743 16.3168 169.242 17.9119C168.741 19.4614 168.49 21.0564 168.49 22.6971C168.49 24.3377 168.718 25.9556 169.173 27.5506C169.675 29.1457 170.518 30.5585 171.703 31.789C172.888 32.9739 174.346 33.6119 176.078 33.703H198.637C201.508 33.9765 203.08 35.5488 203.353 38.4199C203.308 39.6959 202.829 40.7669 201.918 41.6328C201.006 42.4531 199.913 42.8633 198.637 42.8633H176.83H173.685C170.495 42.681 167.875 41.4733 165.824 39.2402C163.773 36.9615 162.292 34.3866 161.38 31.5155C160.515 28.6444 160.082 25.7049 160.082 22.6971C160.082 20.464 160.332 18.2537 160.834 16.0662C161.335 13.8786 162.11 11.805 163.158 9.8454C164.252 7.84017 165.687 6.13117 167.464 4.7184C169.287 3.30562 171.361 2.57645 173.685 2.53088H174.984H198.637C201.508 2.80432 203.08 4.3766 203.353 7.24772C203.353 8.52377 202.875 9.59474 201.918 10.4606C201.006 11.281 199.913 11.6911 198.637 11.6911H176.078ZM228.578 21.74C227.348 19.4158 225.798 17.2055 223.93 15.1091C222.061 13.0127 220.261 11.8734 218.529 11.6911H212.787C211.511 11.6911 210.44 11.2354 209.574 10.3239C208.663 9.45802 208.207 8.38705 208.207 7.111C208.207 5.83494 208.64 4.76397 209.506 3.89808C210.417 2.98661 211.511 2.53088 212.787 2.53088H218.529V2.59924H219.213C222.494 2.78153 225.889 4.62725 229.399 8.1364C231.13 9.91376 232.725 11.919 234.184 14.1521C235.642 11.919 237.26 9.91376 239.037 8.1364C242.501 4.62725 245.873 2.78153 249.155 2.59924H249.838V2.53088H255.581C256.857 2.53088 257.928 2.98661 258.793 3.89808C259.705 4.76397 260.161 5.83494 260.161 7.111C260.161 8.38705 259.705 9.45802 258.793 10.3239C257.928 11.2354 256.857 11.6911 255.581 11.6911H249.838C248.106 11.8734 246.306 13.0127 244.438 15.1091C242.569 17.2055 241.02 19.4158 239.789 21.74C239.516 22.2413 239.242 22.7199 238.969 23.1756C239.06 23.3123 239.151 23.449 239.242 23.5858C240.473 25.9556 242.022 28.1887 243.891 30.285C245.759 32.3814 247.56 33.498 249.291 33.6347H255.034C256.31 33.6347 257.381 34.0904 258.247 35.0019C259.158 35.8678 259.614 36.9387 259.614 38.2148C259.614 39.4909 259.158 40.5846 258.247 41.4961C257.381 42.362 256.31 42.7949 255.034 42.7949H248.608C245.327 42.6126 241.954 40.7897 238.491 37.3261C236.941 35.7311 235.505 33.9993 234.184 32.1308C232.862 33.9993 231.427 35.7311 229.877 37.3261C226.414 40.7897 223.041 42.6126 219.76 42.7949H213.334C212.058 42.7949 210.964 42.362 210.053 41.4961C209.187 40.5846 208.754 39.4909 208.754 38.2148C208.754 36.9387 209.21 35.8678 210.121 35.0019C210.987 34.0904 212.058 33.6347 213.334 33.6347H219.076C220.808 33.498 222.608 32.3814 224.477 30.285C226.345 28.1887 227.895 25.9556 229.125 23.5858C229.216 23.449 229.307 23.3123 229.399 23.1756C229.125 22.7199 228.852 22.2413 228.578 21.74ZM265.766 38.2832C265.766 37.0071 266.199 35.9361 267.065 35.0702C267.976 34.1588 269.07 33.703 270.346 33.703H283.471V11.6911H270.346C269.07 11.6911 267.999 11.2354 267.133 10.3239C266.222 9.45802 265.766 8.38705 265.766 7.111C265.766 5.83494 266.199 4.76397 267.065 3.89808C267.976 2.98661 269.07 2.53088 270.346 2.53088H305.757C307.033 2.53088 308.127 2.96382 309.038 3.82972C309.904 4.74118 310.337 5.83494 310.337 7.111C310.337 8.38705 309.881 9.48081 308.97 10.3923C308.104 11.2582 307.033 11.6911 305.757 11.6911H292.7V33.703H305.757C307.033 33.703 308.127 34.136 309.038 35.0019C309.904 35.9133 310.337 37.0071 310.337 38.2832C310.337 39.5592 309.881 40.653 308.97 41.5644C308.104 42.4303 307.033 42.8633 305.757 42.8633H270.346C269.07 42.8633 267.999 42.4075 267.133 41.4961C266.222 40.6302 265.766 39.5592 265.766 38.2832ZM354.087 2.53088C356.412 2.57645 358.485 3.30562 360.308 4.7184C362.131 6.13117 363.589 7.81738 364.683 9.77704C365.822 11.7367 366.666 13.8103 367.212 15.9978C367.759 18.1853 368.033 20.4184 368.033 22.6971C368.033 25.7049 367.554 28.6672 366.597 31.5839C365.686 34.455 364.159 37.0071 362.017 39.2402C359.921 41.4733 357.277 42.681 354.087 42.8633H330.23C327.04 42.7266 324.373 41.5417 322.232 39.3086C320.09 37.0755 318.563 34.5006 317.651 31.5839C316.786 28.6672 316.353 25.7049 316.353 22.6971C316.353 19.6892 316.808 16.7498 317.72 13.8786C318.631 10.9619 320.135 8.38705 322.232 6.15396C324.373 3.87529 327.04 2.6676 330.23 2.53088H331.528H352.788H354.087ZM351.763 33.703C353.495 33.6119 354.93 32.9739 356.07 31.789C357.255 30.5585 358.098 29.1457 358.599 27.5506C359.1 25.9556 359.351 24.3377 359.351 22.6971C359.351 21.0564 359.078 19.4614 358.531 17.9119C358.029 16.3168 357.209 14.904 356.07 13.6736C354.93 12.4431 353.495 11.7823 351.763 11.6911H332.349C330.617 11.7823 329.181 12.4431 328.042 13.6736C326.903 14.904 326.06 16.3168 325.513 17.9119C325.012 19.4614 324.761 21.0564 324.761 22.6971C324.761 24.3377 325.012 25.9556 325.513 27.5506C326.014 29.1457 326.834 30.5585 327.974 31.789C329.159 32.9739 330.617 33.6119 332.349 33.703H351.763Z" fill="white"/>
</svg>
