<svg width="126" height="150" viewBox="0 0 126 150" fill="none" xmlns="http://www.w3.org/2000/svg">
<path d="M63.1115 0L-0.00115204 35.8308L20.2137 48.3502L63.1115 23.9704L105.438 47.5462L125.078 35.8308L63.1115 0Z" fill="#CC087E"/>
<path d="M105.436 47.4908L125.176 35.7134V149.996L105.436 118.41V47.4908Z" fill="#940059"/>
<path d="M125.195 150.001L82.9279 131.164L83.3487 107.94L105.44 118.415L125.195 150.001Z" fill="#F90196"/>
<path d="M83.2479 131.129L63.2976 142.175L63.4802 119.5L83.3589 107.94L83.2479 131.129Z" fill="#940059"/>
<path d="M63.3341 142.174L0.18565 106.778L0.0603409 35.7622L20.2754 48.2771L20.2051 94.9273L63.5151 119.521L63.3341 142.174Z" fill="#F90196"/>
<path d="M83.73 60.2935L63.4003 71.3197L63.7314 94.8531L83.73 83.2649V60.2935Z" fill="#940059"/>
<path d="M63.2192 48.8384L43.0118 60.332L63.3551 71.5164L83.7886 60.2871L63.2192 48.8384Z" fill="#CC097E"/>
<path d="M63.5023 71.4763L43.0145 60.186L43.3333 82.5002L63.73 94.8572L63.5023 71.4763Z" fill="#F90196"/>
</svg>
