<svg width="79" height="10" viewBox="0 0 79 10" fill="none" xmlns="http://www.w3.org/2000/svg">
<path opacity="0.5" d="M1.12891 9.63672C0.882812 9.6276 0.673177 9.54102 0.5 9.37695C0.326823 9.20378 0.235677 8.99414 0.226562 8.74805V5.34375C0.235677 4.69661 0.326823 4.08594 0.5 3.51172C0.682292 2.9375 0.978516 2.45443 1.38867 2.0625C1.80794 1.66146 2.33659 1.44271 2.97461 1.40625H8.25195C8.49805 1.41536 8.70312 1.50651 8.86719 1.67969C9.04036 1.84375 9.13151 2.04883 9.14062 2.29492C9.14062 2.55013 9.05404 2.76888 8.88086 2.95117C8.7168 3.13346 8.50716 3.22917 8.25195 3.23828H3.43945C3.0931 3.25651 2.80599 3.38867 2.57812 3.63477C2.35026 3.88086 2.20443 4.16341 2.14062 4.48242C2.08594 4.79232 2.06315 5.13411 2.07227 5.50781V8.74805C2.06315 9.00326 1.96745 9.21745 1.78516 9.39062C1.60286 9.55469 1.38411 9.63672 1.12891 9.63672ZM2.71484 6.04102C2.71484 5.78581 2.80599 5.57161 2.98828 5.39844C3.16146 5.21615 3.37565 5.125 3.63086 5.125H8.25195C8.50716 5.125 8.72135 5.21615 8.89453 5.39844C9.07682 5.57161 9.16797 5.78581 9.16797 6.04102C9.16797 6.29622 9.08138 6.51497 8.9082 6.69727C8.72591 6.87044 8.50716 6.95703 8.25195 6.95703H3.63086C3.37565 6.95703 3.1569 6.87044 2.97461 6.69727C2.80143 6.51497 2.71484 6.29622 2.71484 6.04102ZM11.3555 3.12891C11.6016 3.13802 11.8112 3.22917 11.9844 3.40234C12.1576 3.56641 12.2487 3.77148 12.2578 4.01758V8.74805C12.2031 9.29492 11.9023 9.59115 11.3555 9.63672C11.1003 9.63672 10.877 9.55469 10.6855 9.39062C10.5033 9.21745 10.4121 9.00326 10.4121 8.74805V4.01758C10.4212 3.76237 10.5169 3.55273 10.6992 3.38867C10.8815 3.21549 11.1003 3.12891 11.3555 3.12891ZM10.207 1.35156C10.207 1.09635 10.3164 0.877604 10.5352 0.695312C10.7539 0.513021 11.0182 0.421875 11.3281 0.421875C11.638 0.421875 11.9023 0.513021 12.1211 0.695312C12.3398 0.877604 12.4492 1.09635 12.4492 1.35156C12.4492 1.61589 12.3398 1.83919 12.1211 2.02148C11.9023 2.20378 11.638 2.29492 11.3281 2.29492C11.0182 2.29492 10.7539 2.20378 10.5352 2.02148C10.3164 1.83919 10.207 1.61589 10.207 1.35156ZM14.2129 4.98828C14.3861 4.55078 14.6777 4.15885 15.0879 3.8125C15.5072 3.45703 16.0358 3.27474 16.6738 3.26562H21.8145C22.0697 3.26562 22.2839 3.35677 22.457 3.53906C22.6393 3.71224 22.7305 3.92643 22.7305 4.18164C22.7305 4.43685 22.6393 4.6556 22.457 4.83789C22.2839 5.01107 22.0697 5.09766 21.8145 5.09766H16.6191C16.446 5.09766 16.2956 5.17057 16.168 5.31641C16.0404 5.45312 15.9401 5.61719 15.8672 5.80859C15.8034 6 15.7715 6.18229 15.7715 6.35547V8.74805C15.7168 9.29492 15.416 9.59115 14.8691 9.63672C14.6139 9.63672 14.3906 9.55469 14.1992 9.39062C14.0169 9.21745 13.9258 9.00326 13.9258 8.74805V6.36914H13.9395C13.9395 5.89518 14.0306 5.4349 14.2129 4.98828ZM26.8867 9.47266C26.0846 9.44531 25.4785 9.25846 25.0684 8.91211C24.6582 8.55664 24.362 8.16016 24.1797 7.72266C23.9974 7.27604 23.9062 6.82487 23.9062 6.36914C23.9062 5.89518 23.9928 5.43945 24.166 5.00195C24.3483 4.55534 24.6445 4.15885 25.0547 3.8125C25.474 3.45703 26.0026 3.27474 26.6406 3.26562H31.8359C32.0911 3.26562 32.3053 3.35221 32.4785 3.52539C32.6608 3.68945 32.752 3.88997 32.752 4.12695C32.752 4.37305 32.6608 4.58268 32.4785 4.75586C32.3053 4.91992 32.0911 5.00195 31.8359 5.00195H26.7227C26.5221 5.00195 26.3444 5.07031 26.1895 5.20703C26.0436 5.34375 25.9342 5.52148 25.8613 5.74023C25.7975 5.95898 25.7656 6.17318 25.7656 6.38281C25.7656 6.61068 25.7975 6.83398 25.8613 7.05273C25.9342 7.27148 26.0436 7.44922 26.1895 7.58594C26.3444 7.71354 26.5221 7.7819 26.7227 7.79102H31.8359C32.0911 7.79102 32.3053 7.87305 32.4785 8.03711C32.6608 8.20117 32.752 8.39714 32.752 8.625C32.752 8.86198 32.6608 9.0625 32.4785 9.22656C32.3053 9.39062 32.0911 9.47266 31.8359 9.47266H26.8867ZM32.5879 6.3418C32.5879 6.51497 32.5104 6.66536 32.3555 6.79297C32.2188 6.91146 32.0456 6.9707 31.8359 6.9707H27.3652C27.1556 6.9707 26.9779 6.91146 26.832 6.79297C26.6862 6.66536 26.6133 6.51497 26.6133 6.3418C26.6133 6.17773 26.6862 6.0319 26.832 5.9043C26.9779 5.78581 27.1556 5.72656 27.3652 5.72656H31.8359C32.0456 5.72656 32.2233 5.79036 32.3691 5.91797C32.515 6.03646 32.5879 6.17773 32.5879 6.3418ZM44.4414 3.23828C44.0951 3.25651 43.8034 3.38867 43.5664 3.63477C43.3385 3.88086 43.1745 4.16341 43.0742 4.48242C42.974 4.79232 42.9238 5.11133 42.9238 5.43945C42.9238 5.76758 42.9694 6.09115 43.0605 6.41016C43.1608 6.72917 43.3294 7.01172 43.5664 7.25781C43.8034 7.49479 44.0951 7.6224 44.4414 7.64062H48.9531C49.5273 7.69531 49.8418 8.00977 49.8965 8.58398C49.8874 8.83919 49.7917 9.05339 49.6094 9.22656C49.4271 9.39062 49.2083 9.47266 48.9531 9.47266H44.5918H43.9629C43.3249 9.4362 42.8008 9.19466 42.3906 8.74805C41.9805 8.29232 41.6842 7.77734 41.502 7.20312C41.3288 6.62891 41.2422 6.04102 41.2422 5.43945C41.2422 4.99284 41.2923 4.55078 41.3926 4.11328C41.4928 3.67578 41.6478 3.26107 41.8574 2.86914C42.0762 2.4681 42.3633 2.1263 42.7188 1.84375C43.0833 1.5612 43.498 1.41536 43.9629 1.40625H44.2227H48.9531C49.5273 1.46094 49.8418 1.77539 49.8965 2.34961C49.8965 2.60482 49.8008 2.81901 49.6094 2.99219C49.4271 3.15625 49.2083 3.23828 48.9531 3.23828H44.4414ZM58.7969 8.74805V5.45312C58.7969 5.22526 58.6784 5.10677 58.4414 5.09766H53.6562C53.4831 5.10677 53.3327 5.18424 53.2051 5.33008C53.0775 5.4668 52.9818 5.63086 52.918 5.82227C52.8633 6.00456 52.8359 6.19141 52.8359 6.38281C52.8359 6.5651 52.8633 6.75195 52.918 6.94336C52.9818 7.12565 53.0775 7.28971 53.2051 7.43555C53.3327 7.57227 53.4831 7.64062 53.6562 7.64062H57.1562C57.4115 7.64062 57.6257 7.73177 57.7988 7.91406C57.9811 8.08724 58.0723 8.30143 58.0723 8.55664C58.0723 8.81185 57.9811 9.02604 57.7988 9.19922C57.6257 9.38151 57.4115 9.47266 57.1562 9.47266H53.7109C53.0729 9.46354 52.5443 9.28581 52.125 8.93945C51.7148 8.58398 51.4186 8.1875 51.2363 7.75C51.0632 7.30339 50.9766 6.8431 50.9766 6.36914C50.9766 5.91341 51.0677 5.4668 51.25 5.0293C51.4323 4.58268 51.7285 4.1862 52.1387 3.83984C52.5488 3.48438 53.1549 3.29297 53.957 3.26562H59.6992C59.9544 3.26562 60.1732 3.35221 60.3555 3.52539C60.5378 3.68945 60.6335 3.89909 60.6426 4.1543V8.74805C60.6426 9.00326 60.5469 9.21745 60.3555 9.39062C60.1732 9.55469 59.9544 9.63672 59.6992 9.63672C59.1523 9.59115 58.8516 9.29492 58.7969 8.74805ZM63.3496 1.1875C63.5957 1.19661 63.8053 1.28776 63.9785 1.46094C64.1517 1.625 64.2428 1.83008 64.252 2.07617V8.77539C64.1973 9.32227 63.8965 9.61849 63.3496 9.66406C63.0944 9.66406 62.8711 9.58203 62.6797 9.41797C62.4974 9.24479 62.4062 9.0306 62.4062 8.77539V2.07617C62.4154 1.82096 62.5111 1.61133 62.6934 1.44727C62.8757 1.27409 63.0944 1.1875 63.3496 1.1875ZM66.9316 1.1875C67.1777 1.19661 67.3874 1.28776 67.5605 1.46094C67.7337 1.625 67.8249 1.83008 67.834 2.07617V8.77539C67.7793 9.32227 67.4785 9.61849 66.9316 9.66406C66.6764 9.66406 66.4531 9.58203 66.2617 9.41797C66.0794 9.24479 65.9883 9.0306 65.9883 8.77539V2.07617C65.9974 1.82096 66.0931 1.61133 66.2754 1.44727C66.4577 1.27409 66.6764 1.1875 66.9316 1.1875ZM78.252 4.05859C78.252 4.28646 78.1608 4.47786 77.9785 4.63281C77.8053 4.77865 77.5911 4.85156 77.3359 4.85156H71.5527C71.4342 4.85156 71.3385 4.87435 71.2656 4.91992C71.1927 4.96549 71.138 5.01562 71.1016 5.07031C71.0651 5.11589 71.0469 5.1569 71.0469 5.19336C71.0469 5.23893 71.0651 5.28906 71.1016 5.34375C71.138 5.38932 71.1927 5.4349 71.2656 5.48047C71.3385 5.51693 71.4342 5.53971 71.5527 5.54883H76.0234C76.5977 5.55794 77.0716 5.67188 77.4453 5.89062C77.819 6.10026 78.0833 6.35091 78.2383 6.64258C78.4023 6.92513 78.4844 7.21224 78.4844 7.50391C78.4844 7.78646 78.4023 8.07357 78.2383 8.36523C78.0742 8.64779 77.8053 8.89844 77.4316 9.11719C77.0671 9.32682 76.5977 9.43164 76.0234 9.43164C75.9232 9.44076 75.8503 9.44531 75.8047 9.44531H70.5C70.2448 9.44531 70.026 9.3724 69.8438 9.22656C69.6706 9.07161 69.584 8.88477 69.584 8.66602C69.584 8.43815 69.6751 8.24674 69.8574 8.0918C70.0306 7.94596 70.2448 7.87305 70.5 7.87305H76.1328C76.2695 7.88216 76.3789 7.86393 76.4609 7.81836C76.5521 7.77279 76.6204 7.72266 76.666 7.66797C76.7116 7.61328 76.7344 7.55859 76.7344 7.50391C76.7344 7.47656 76.7116 7.43099 76.666 7.36719C76.6204 7.29427 76.5521 7.23958 76.4609 7.20312C76.3789 7.15755 76.2695 7.13021 76.1328 7.12109H71.6484C71.1198 7.11198 70.6823 7.0026 70.3359 6.79297C69.9896 6.57422 69.7435 6.32357 69.5977 6.04102C69.4518 5.75846 69.3789 5.47591 69.3789 5.19336C69.3789 4.91081 69.4518 4.63281 69.5977 4.35938C69.7526 4.07682 69.9987 3.83529 70.3359 3.63477C70.6823 3.42513 71.1198 3.3112 71.6484 3.29297C71.7396 3.28385 71.8079 3.2793 71.8535 3.2793H77.3359C77.5911 3.2793 77.8053 3.35677 77.9785 3.51172C78.1608 3.65755 78.252 3.83984 78.252 4.05859Z" fill="#EF268E"/>
</svg>
