<svg width="24" height="24" viewBox="0 0 24 24" fill="none" xmlns="http://www.w3.org/2000/svg">
<path fill-rule="evenodd" clip-rule="evenodd" d="M9.06483 20.1026C9.28332 20.5122 9.50211 20.8812 9.71125 21.2082C7.48922 20.7085 5.56111 19.4322 4.22691 17.6793C5.10746 17.1834 6.23525 16.6694 7.59107 16.2933C7.97642 17.8046 8.52007 19.0812 9.06483 20.1026ZM10.7455 19.2063C10.2723 18.319 9.79798 17.211 9.45627 15.8981C10.1919 15.7889 10.9772 15.7259 11.81 15.7259C12.6428 15.7259 13.4281 15.7889 14.1636 15.898C13.8219 17.211 13.3476 18.319 12.8743 19.2063C12.4949 19.9178 12.1168 20.4858 11.8099 20.9014C11.503 20.4858 11.125 19.9178 10.7455 19.2063ZM8.95278 11.9164C8.95278 12.6581 9.00268 13.3621 9.09068 14.0267C9.93932 13.8966 10.8466 13.8211 11.81 13.8211C12.7733 13.8211 13.6806 13.8964 14.5292 14.0267C14.6172 13.362 14.6671 12.6581 14.6671 11.9164C14.6671 11.1747 14.6172 10.4708 14.5292 9.80602C13.6806 9.93617 12.7733 10.0116 11.81 10.0116C10.8466 10.0116 9.93932 9.93617 9.09068 9.80602C9.00268 10.4707 8.95278 11.1747 8.95278 11.9164ZM7.22183 9.41325C7.11121 10.1993 7.04801 11.0343 7.04801 11.9164C7.04801 12.7984 7.11121 13.6334 7.22183 14.4195C5.60469 14.8536 4.26556 15.4658 3.22991 16.0549C2.62513 14.8035 2.28611 13.3995 2.28611 11.9164C2.28611 10.4332 2.62513 9.0293 3.22989 7.7778C4.26544 8.3668 5.60459 8.97904 7.22183 9.41325ZM9.45627 7.93471C10.1919 8.04388 10.9772 8.10684 11.81 8.10684C12.6428 8.10684 13.4281 8.04389 14.1636 7.93474C13.8219 6.62182 13.3476 5.51374 12.8743 4.62646C12.4949 3.91502 12.1168 3.34692 11.8099 2.93137C11.503 3.34692 11.125 3.91502 10.7455 4.62643C10.2723 5.51371 9.79798 6.6218 9.45627 7.93471ZM16.398 9.41338C16.5086 10.1994 16.5718 11.0345 16.5718 11.9164C16.5718 12.7984 16.5086 13.6333 16.398 14.4193C18.0151 14.8536 19.3543 15.4658 20.39 16.0549C20.9947 14.8033 21.3337 13.3994 21.3337 11.9164C21.3337 10.4333 20.9947 9.02934 20.39 7.77786C19.3544 8.36687 18.0153 8.9791 16.398 9.41338ZM19.3929 6.15355C18.5123 6.64946 17.3845 7.16341 16.0288 7.53958C15.6434 6.02816 15.0998 4.75153 14.5551 3.7301C14.3365 3.32052 14.1177 2.9516 13.9086 2.62456C16.1307 3.12428 18.0588 4.40063 19.3929 6.15355ZM7.59106 7.53954C6.23533 7.16336 5.10757 6.64941 4.22692 6.15348C5.56111 4.40061 7.48922 3.12428 9.71113 2.62456C9.50211 2.9516 9.28332 3.3205 9.06481 3.73008C8.52007 4.7515 7.97642 6.02812 7.59106 7.53954ZM16.0288 16.2931C15.6434 17.8046 15.0998 19.0812 14.5551 20.1026C14.3365 20.5122 14.1177 20.8812 13.9086 21.2082C16.1307 20.7085 18.0588 19.432 19.393 17.6792C18.5124 17.1833 17.3846 16.6694 16.0288 16.2931ZM11.8099 23.3449C18.1218 23.3449 23.2385 18.2282 23.2385 11.9164C23.2385 5.60454 18.1218 0.487793 11.8099 0.487793C5.4981 0.487793 0.381348 5.60454 0.381348 11.9164C0.381348 18.2282 5.4981 23.3449 11.8099 23.3449Z" fill="#44E19F"/>
</svg>
