<svg width="31" height="24" viewBox="0 0 31 24" fill="none" xmlns="http://www.w3.org/2000/svg">
<path d="M24.6041 13.5V10.5H30.6747V13.5H24.6041ZM26.4253 24L21.5688 20.4L23.39 18L28.2465 21.6L26.4253 24ZM23.39 6L21.5688 3.6L26.4253 0L28.2465 2.4L23.39 6ZM4.87472 22.5V16.5H3.35707C2.52237 16.5 1.80781 16.2062 1.21339 15.6187C0.618983 15.0312 0.321777 14.325 0.321777 13.5V10.5C0.321777 9.675 0.618983 8.96875 1.21339 8.38125C1.80781 7.79375 2.52237 7.5 3.35707 7.5H9.42766L17.0159 3V21L9.42766 16.5H7.91001V22.5H4.87472ZM13.9806 15.675V8.325L10.2624 10.5H3.35707V13.5H10.2624L13.9806 15.675ZM18.5335 17.025V6.975C19.2165 7.575 19.7666 8.30625 20.184 9.16875C20.6013 10.0312 20.81 10.975 20.81 12C20.81 13.025 20.6013 13.9688 20.184 14.8313C19.7666 15.6938 19.2165 16.425 18.5335 17.025Z" fill="#E8EAED"/>
</svg>
