<svg width="29" height="24" viewBox="0 0 29 24" fill="none" xmlns="http://www.w3.org/2000/svg">
<path d="M28.1779 1.51146C28.2311 1.20403 28.1111 0.892467 27.8626 0.692537C27.6139 0.492607 27.2738 0.434196 26.9684 0.539025L1.3685 9.33025C1.02359 9.44869 0.785466 9.75364 0.76339 10.1052C0.741313 10.4567 0.939542 10.787 1.26713 10.9445L8.58142 14.461C8.87487 14.602 9.22446 14.5811 9.49745 14.4061L15.569 10.5141L11.9335 14.8837C11.7734 15.0761 11.7047 15.3243 11.744 15.5678C11.7833 15.8113 11.9271 16.0277 12.1403 16.1644L23.1118 23.1973C23.3698 23.3627 23.6977 23.3911 23.9824 23.2725C24.2671 23.154 24.4697 22.9047 24.5207 22.6104L28.1779 1.51146Z" fill="#44E19F"/>
</svg>
