<svg version="1.1" xmlns="http://www.w3.org/2000/svg" viewBox="0 0 613 89" width="613" height="89">
  <!-- svg-source:excalidraw -->
  
  <defs>
    <style class="style-fonts">
      
    </style>
    
  </defs>
  <rect x="0" y="0" width="613" height="89" fill="#ffffff"></rect><g stroke-linecap="round" transform="translate(10 10) rotate(0 296.5 34.5)"><path d="M17.25 0 C186.25 -0.82, 355.41 0.38, 575.75 0 M17.25 0 C139.96 0.42, 263.08 0.59, 575.75 0 M575.75 0 C587.36 -0.26, 592.43 4.78, 593 17.25 M575.75 0 C586.42 0.83, 592.24 6.86, 593 17.25 M593 17.25 C594.89 30.58, 594.14 42.32, 593 51.75 M593 17.25 C593.37 28.21, 592.58 38.29, 593 51.75 M593 51.75 C592.78 61.92, 586.44 68.97, 575.75 69 M593 51.75 C592.06 61.44, 586.17 67.05, 575.75 69 M575.75 69 C399.99 69.51, 223.2 69.9, 17.25 69 M575.75 69 C377.45 68.3, 178.9 68.49, 17.25 69 M17.25 69 C7.63 69.97, -0.43 61.89, 0 51.75 M17.25 69 C4.81 67.7, -1.91 61.31, 0 51.75 M0 51.75 C1.05 43.36, -0.78 36.14, 0 17.25 M0 51.75 C0.49 44.61, -0.76 36.96, 0 17.25 M0 17.25 C0.87 5.98, 4.78 0.63, 17.25 0 M0 17.25 C1.5 6.92, 6.13 0.88, 17.25 0" stroke="#1e1e1e" stroke-width="2" fill="none"></path></g><g stroke-linecap="round" transform="translate(21 27) rotate(0 27 20)"><path d="M10 0 C19.12 0.2, 25.62 1.43, 44 0 M10 0 C17.58 0.15, 23.48 -0.24, 44 0 M44 0 C51.54 0.23, 53.03 3.97, 54 10 M44 0 C52.17 1.17, 54.38 4.22, 54 10 M54 10 C56.03 16.77, 54.68 22.9, 54 30 M54 10 C53.49 15.88, 54.95 24.36, 54 30 M54 30 C55.28 35.32, 49.97 41.88, 44 40 M54 30 C51.78 34.39, 50.52 41.71, 44 40 M44 40 C30.19 41.55, 17.44 40.76, 10 40 M44 40 C32.43 40.47, 19.1 39.8, 10 40 M10 40 C4.14 40.91, -1.52 37.32, 0 30 M10 40 C2.74 39.04, 0.58 36.89, 0 30 M0 30 C-1.86 25.34, 0.56 15.98, 0 10 M0 30 C-0.44 24.58, -0.48 18.09, 0 10 M0 10 C-0.67 1.48, 1.36 -0.51, 10 0 M0 10 C-2.09 5.41, 5.1 -1.7, 10 0" stroke="#1e1e1e" stroke-width="2" fill="none"></path></g><g stroke-linecap="round" transform="translate(88 25) rotate(0 75.5 20)"><path d="M10 0 C47.46 -2.05, 83.57 -3.15, 141 0 M10 0 C53.56 -0.67, 98.1 -1.71, 141 0 M141 0 C145.69 -0.51, 149.18 5.14, 151 10 M141 0 C149.44 -1.7, 149.09 3, 151 10 M151 10 C152.87 16.5, 152.72 21.29, 151 30 M151 10 C150.92 15.85, 150.05 21.58, 151 30 M151 30 C150.88 37.75, 148.08 41.31, 141 40 M151 30 C150.01 36.57, 147.77 39.87, 141 40 M141 40 C113.08 40.29, 88.58 40.3, 10 40 M141 40 C110.99 40.3, 80.68 39.33, 10 40 M10 40 C4.84 38.31, -0.84 35.64, 0 30 M10 40 C4.88 39.49, -1.61 34.69, 0 30 M0 30 C0.43 23.15, -1.66 16.77, 0 10 M0 30 C-0.79 24.75, -0.14 19.42, 0 10 M0 10 C0.96 1.4, 4.52 -0.02, 10 0 M0 10 C1.37 3.74, 4.15 1.06, 10 0" stroke="#1e1e1e" stroke-width="2" fill="none"></path></g><g stroke-linecap="round" transform="translate(314 29) rotate(0 27 20)"><path d="M10 0 C18.23 -1.11, 24.31 -0.45, 44 0 M10 0 C16.14 0.99, 24.86 -0.65, 44 0 M44 0 C49 -0.29, 53.48 2.25, 54 10 M44 0 C49.24 2.27, 55.17 5.44, 54 10 M54 10 C51.96 16.13, 54.99 20.7, 54 30 M54 10 C54.19 18.52, 53.56 25.7, 54 30 M54 30 C54.09 36.55, 48.74 38.63, 44 40 M54 30 C52.61 35.23, 51.91 41.05, 44 40 M44 40 C30.98 40.27, 21.71 40.2, 10 40 M44 40 C33.53 39.2, 24.57 39.49, 10 40 M10 40 C1.94 38.28, 0.28 37.36, 0 30 M10 40 C4.15 40.58, -0.65 34.83, 0 30 M0 30 C1.11 22.87, -0.63 18.83, 0 10 M0 30 C0.5 25.63, 0.5 21.45, 0 10 M0 10 C0.71 4.26, 3.67 1.72, 10 0 M0 10 C1.98 3.18, 5.36 -1.85, 10 0" stroke="#1e1e1e" stroke-width="2" fill="none"></path></g><g stroke-linecap="round" transform="translate(385 26) rotate(0 27 20)"><path d="M10 0 C18.55 -1.48, 29.95 1.88, 44 0 M10 0 C17.43 -0.49, 24.76 1.04, 44 0 M44 0 C51.68 1.83, 54.33 2.65, 54 10 M44 0 C50.91 -2.27, 53.78 4.55, 54 10 M54 10 C55.27 14.46, 55.5 17.24, 54 30 M54 10 C53.04 15.23, 53.4 21.2, 54 30 M54 30 C55.08 37.58, 51.76 38.62, 44 40 M54 30 C52.25 35.57, 51.28 42.11, 44 40 M44 40 C31.33 39.42, 21 41.6, 10 40 M44 40 C34.69 40.05, 25.45 39.96, 10 40 M10 40 C2.77 38.41, -0.67 35.55, 0 30 M10 40 C2.01 41.15, -2.07 35.81, 0 30 M0 30 C-1.76 25.7, 0.14 20.22, 0 10 M0 30 C0.1 24.51, 0.79 17.23, 0 10 M0 10 C1.76 1.73, 4.13 1.07, 10 0 M0 10 C0.87 4.7, 4.96 0.46, 10 0" stroke="#1e1e1e" stroke-width="2" fill="none"></path></g><g stroke-linecap="round" transform="translate(529 29) rotate(0 27 20)"><path d="M10 0 C22.53 -0.24, 34.55 -0.96, 44 0 M10 0 C23.72 -0.65, 37.22 -1.3, 44 0 M44 0 C50.47 1.06, 52.05 5.2, 54 10 M44 0 C50.53 1.25, 54.48 4.84, 54 10 M54 10 C53.88 13.21, 52.62 19.06, 54 30 M54 10 C54.66 14.06, 53.35 19.02, 54 30 M54 30 C54.53 38.5, 51.13 39.91, 44 40 M54 30 C55.74 34.72, 49.7 38.82, 44 40 M44 40 C29.79 40.04, 19.71 40.48, 10 40 M44 40 C32.61 39.17, 21.32 40.23, 10 40 M10 40 C1.53 39.26, -0.51 35.03, 0 30 M10 40 C4.44 37.78, 1.36 36.64, 0 30 M0 30 C0.89 23.14, 1.68 17.34, 0 10 M0 30 C0.22 24.67, 0.2 18.86, 0 10 M0 10 C1.41 3.73, 1.83 1.5, 10 0 M0 10 C-0.06 2.52, 3.41 1.54, 10 0" stroke="#1e1e1e" stroke-width="2" fill="none"></path></g><g stroke-linecap="round" transform="translate(461 26) rotate(0 27 20)"><path d="M10 0 C19.27 -0.97, 28.29 1.74, 44 0 M10 0 C20.75 0.59, 31.33 0.02, 44 0 M44 0 C50.32 -1.56, 55.09 3.63, 54 10 M44 0 C48.63 2.03, 55.83 5, 54 10 M54 10 C53.51 14.46, 53.52 21.56, 54 30 M54 10 C53.14 15.22, 54.53 21.22, 54 30 M54 30 C52.71 38.41, 52.41 40.6, 44 40 M54 30 C55.86 36.77, 51.84 39.36, 44 40 M44 40 C34.54 40.6, 29.38 38.33, 10 40 M44 40 C32.14 40.6, 19.68 40.25, 10 40 M10 40 C4.82 39.75, 0.04 36.1, 0 30 M10 40 C5.49 41.24, 0.18 35.75, 0 30 M0 30 C-0.53 23.37, 1.59 13.95, 0 10 M0 30 C0.09 25.44, 0.22 21.07, 0 10 M0 10 C-1.64 1.45, 5.21 -0.51, 10 0 M0 10 C-0.17 3.33, 3.61 -2.14, 10 0" stroke="#1e1e1e" stroke-width="2" fill="none"></path></g><g stroke-linecap="round" transform="translate(90 26) rotate(0 27 20)"><path d="M10 0 C22.29 1.79, 35.19 1.38, 44 0 M10 0 C23.55 0.09, 35.65 0.44, 44 0 M44 0 C49.72 0.06, 54.3 4.16, 54 10 M44 0 C52.33 0.88, 52.45 1.61, 54 10 M54 10 C52.12 15.25, 54.19 19.22, 54 30 M54 10 C54.06 16.46, 53.07 21.81, 54 30 M54 30 C55.88 35.19, 50.29 38.17, 44 40 M54 30 C54.37 35.63, 50.8 41.87, 44 40 M44 40 C36.38 40.38, 28.78 41.02, 10 40 M44 40 C31.43 39.63, 18.08 40.24, 10 40 M10 40 C5.26 41.07, -0.15 36.6, 0 30 M10 40 C4.71 38.45, 0.89 36.2, 0 30 M0 30 C1.53 26.2, 1.36 20.51, 0 10 M0 30 C-0.02 23.56, 0.64 16.54, 0 10 M0 10 C0.97 5.12, 3.49 0.78, 10 0 M0 10 C0.21 3.48, 2.49 -1.66, 10 0" stroke="#1e1e1e" stroke-width="2" fill="none"></path></g></svg>