<svg width="34" height="33" viewBox="0 0 34 33" fill="none" xmlns="http://www.w3.org/2000/svg">
<path d="M3.408 31L0.96 25.4H2.088L4.272 30.464H3.624L5.832 25.4H6.872L4.432 31H3.408ZM9.05463 31.056C8.57996 31.056 8.16396 30.9627 7.80663 30.776C7.45463 30.584 7.17996 30.3227 6.98263 29.992C6.79063 29.6613 6.69463 29.2853 6.69463 28.864C6.69463 28.4373 6.78796 28.0613 6.97463 27.736C7.16663 27.4053 7.42796 27.1467 7.75863 26.96C8.09463 26.7733 8.47596 26.68 8.90263 26.68C9.31863 26.68 9.68929 26.7707 10.0146 26.952C10.34 27.1333 10.596 27.3893 10.7826 27.72C10.9693 28.0507 11.0626 28.44 11.0626 28.888C11.0626 28.9307 11.06 28.9787 11.0546 29.032C11.0546 29.0853 11.052 29.136 11.0466 29.184H7.48663V28.52H10.5186L10.1266 28.728C10.132 28.4827 10.0813 28.2667 9.97463 28.08C9.86796 27.8933 9.72129 27.7467 9.53463 27.64C9.35329 27.5333 9.14263 27.48 8.90263 27.48C8.65729 27.48 8.44129 27.5333 8.25463 27.64C8.07329 27.7467 7.92929 27.896 7.82263 28.088C7.72129 28.2747 7.67063 28.496 7.67063 28.752V28.912C7.67063 29.168 7.72929 29.3947 7.84663 29.592C7.96396 29.7893 8.12929 29.9413 8.34263 30.048C8.55596 30.1547 8.80129 30.208 9.07863 30.208C9.31863 30.208 9.53463 30.1707 9.72663 30.096C9.91863 30.0213 10.0893 29.904 10.2386 29.744L10.7746 30.36C10.5826 30.584 10.34 30.7573 10.0466 30.88C9.75863 30.9973 9.42796 31.056 9.05463 31.056ZM12.0232 31V25.064H13.0232V31H12.0232ZM16.2557 31.056C15.8184 31.056 15.429 30.9627 15.0877 30.776C14.7464 30.584 14.477 30.3227 14.2797 29.992C14.0824 29.6613 13.9837 29.2853 13.9837 28.864C13.9837 28.4373 14.0824 28.0613 14.2797 27.736C14.477 27.4053 14.7464 27.1467 15.0877 26.96C15.429 26.7733 15.8184 26.68 16.2557 26.68C16.6984 26.68 17.0904 26.7733 17.4317 26.96C17.7784 27.1467 18.0477 27.4027 18.2397 27.728C18.437 28.0533 18.5357 28.432 18.5357 28.864C18.5357 29.2853 18.437 29.6613 18.2397 29.992C18.0477 30.3227 17.7784 30.584 17.4317 30.776C17.0904 30.9627 16.6984 31.056 16.2557 31.056ZM16.2557 30.2C16.501 30.2 16.7197 30.1467 16.9117 30.04C17.1037 29.9333 17.253 29.7787 17.3597 29.576C17.4717 29.3733 17.5277 29.136 17.5277 28.864C17.5277 28.5867 17.4717 28.3493 17.3597 28.152C17.253 27.9493 17.1037 27.7947 16.9117 27.688C16.7197 27.5813 16.5037 27.528 16.2637 27.528C16.0184 27.528 15.7997 27.5813 15.6077 27.688C15.421 27.7947 15.2717 27.9493 15.1597 28.152C15.0477 28.3493 14.9917 28.5867 14.9917 28.864C14.9917 29.136 15.0477 29.3733 15.1597 29.576C15.2717 29.7787 15.421 29.9333 15.6077 30.04C15.7997 30.1467 16.0157 30.2 16.2557 30.2ZM21.4519 31.056C21.0039 31.056 20.6039 30.9627 20.2519 30.776C19.9053 30.584 19.6333 30.3227 19.4359 29.992C19.2386 29.6613 19.1399 29.2853 19.1399 28.864C19.1399 28.4373 19.2386 28.0613 19.4359 27.736C19.6333 27.4053 19.9053 27.1467 20.2519 26.96C20.6039 26.7733 21.0039 26.68 21.4519 26.68C21.8679 26.68 22.2333 26.7653 22.5479 26.936C22.8679 27.1013 23.1106 27.3467 23.2759 27.672L22.5079 28.12C22.3799 27.9173 22.2226 27.768 22.0359 27.672C21.8546 27.576 21.6573 27.528 21.4439 27.528C21.1986 27.528 20.9773 27.5813 20.7799 27.688C20.5826 27.7947 20.4279 27.9493 20.3159 28.152C20.2039 28.3493 20.1479 28.5867 20.1479 28.864C20.1479 29.1413 20.2039 29.3813 20.3159 29.584C20.4279 29.7813 20.5826 29.9333 20.7799 30.04C20.9773 30.1467 21.1986 30.2 21.4439 30.2C21.6573 30.2 21.8546 30.152 22.0359 30.056C22.2226 29.96 22.3799 29.8107 22.5079 29.608L23.2759 30.056C23.1106 30.376 22.8679 30.624 22.5479 30.8C22.2333 30.9707 21.8679 31.056 21.4519 31.056ZM24.1013 31V26.728H25.1013V31H24.1013ZM24.6053 26.024C24.4186 26.024 24.264 25.9653 24.1413 25.848C24.024 25.7307 23.9653 25.5893 23.9653 25.424C23.9653 25.2533 24.024 25.112 24.1413 25C24.264 24.8827 24.4186 24.824 24.6053 24.824C24.792 24.824 24.944 24.88 25.0613 24.992C25.184 25.0987 25.2453 25.2347 25.2453 25.4C25.2453 25.576 25.1866 25.7253 25.0693 25.848C24.952 25.9653 24.7973 26.024 24.6053 26.024ZM28.0218 31.056C27.5525 31.056 27.1898 30.936 26.9338 30.696C26.6778 30.4507 26.5498 30.0907 26.5498 29.616V25.784H27.5498V29.592C27.5498 29.7947 27.6005 29.952 27.7018 30.064C27.8085 30.176 27.9551 30.232 28.1418 30.232C28.3658 30.232 28.5525 30.1733 28.7018 30.056L28.9818 30.768C28.8645 30.864 28.7205 30.936 28.5498 30.984C28.3791 31.032 28.2031 31.056 28.0218 31.056ZM25.8458 27.56V26.76H28.6938V27.56H25.8458ZM30.0783 32.608C29.8703 32.608 29.6623 32.5733 29.4543 32.504C29.2463 32.4347 29.073 32.3387 28.9343 32.216L29.3343 31.48C29.4356 31.5707 29.5503 31.6427 29.6783 31.696C29.8063 31.7493 29.937 31.776 30.0703 31.776C30.2516 31.776 30.3983 31.7307 30.5103 31.64C30.6223 31.5493 30.7263 31.3973 30.8223 31.184L31.0703 30.624L31.1503 30.504L32.7663 26.728H33.7263L31.7263 31.344C31.593 31.664 31.4436 31.9173 31.2783 32.104C31.1183 32.2907 30.937 32.4213 30.7343 32.496C30.537 32.5707 30.3183 32.608 30.0783 32.608ZM30.9583 31.152L29.0303 26.728H30.0703L31.6383 30.416L30.9583 31.152Z" fill="white"/>
<path d="M8.68569 0.697266H6V20.6973H25.8534V18.0116H8.68569V0.697266Z" fill="#44E19F"/>
<path d="M29.9698 3.45508L21.7007 4.90949L23.9194 7.12817L20.2041 10.8451L16.2465 6.8859L9.99609 13.1363L12.5272 15.6674L16.2465 11.9489L20.2041 15.9081L26.4521 9.66085L28.5154 11.7241L29.9698 3.45508Z" fill="#44E19F"/>
</svg>
