<svg width="21" height="20" viewBox="0 0 21 20" fill="none" xmlns="http://www.w3.org/2000/svg">
<path fill-rule="evenodd" clip-rule="evenodd" d="M19.8333 20C20.4777 20 21 19.3604 21 18.5714C21 17.7825 20.4777 17.1429 19.8333 17.1429L1.16667 17.1429C0.522318 17.1429 0 17.7825 0 18.5714C0 19.3604 0.522318 20 1.16667 20L19.8333 20ZM16.3333 10C16.3333 10.789 15.811 11.4286 15.1667 11.4286L1.16667 11.4286C0.522318 11.4286 0 10.789 0 10C0 9.211 0.522318 8.57143 1.16667 8.57143L15.1667 8.57143C15.811 8.57143 16.3333 9.211 16.3333 10ZM9.33333 1.42857C9.33333 2.21757 8.81102 2.85714 8.16667 2.85714L1.16667 2.85714C0.522318 2.85714 0 2.21757 0 1.42857C0 0.63957 0.522318 0 1.16667 0L8.16667 0C8.81102 0 9.33333 0.63957 9.33333 1.42857Z" fill="#888888"/>
</svg>
