<svg width="692" height="20" viewBox="0 0 692 20" fill="none" xmlns="http://www.w3.org/2000/svg">
<path d="M7 11H9V6H7V11ZM8 14C8.28333 14 8.52083 13.9042 8.7125 13.7125C8.90417 13.5208 9 13.2833 9 13C9 12.7167 8.90417 12.4792 8.7125 12.2875C8.52083 12.0958 8.28333 12 8 12C7.71667 12 7.47917 12.0958 7.2875 12.2875C7.09583 12.4792 7 12.7167 7 13C7 13.2833 7.09583 13.5208 7.2875 13.7125C7.47917 13.9042 7.71667 14 8 14ZM0 17V15H2V8C2 6.61667 2.41667 5.3875 3.25 4.3125C4.08333 3.2375 5.16667 2.53333 6.5 2.2V1.5C6.5 1.08333 6.64583 0.729167 6.9375 0.4375C7.22917 0.145833 7.58333 0 8 0C8.41667 0 8.77083 0.145833 9.0625 0.4375C9.35417 0.729167 9.5 1.08333 9.5 1.5V2.2C10.8333 2.53333 11.9167 3.2375 12.75 4.3125C13.5833 5.3875 14 6.61667 14 8V15H16V17H0ZM8 20C7.45 20 6.97917 19.8042 6.5875 19.4125C6.19583 19.0208 6 18.55 6 18H10C10 18.55 9.80417 19.0208 9.4125 19.4125C9.02083 19.8042 8.55 20 8 20ZM4 15H12V8C12 6.9 11.6083 5.95833 10.825 5.175C10.0417 4.39167 9.1 4 8 4C6.9 4 5.95833 4.39167 5.175 5.175C4.39167 5.95833 4 6.9 4 8V15Z" fill="#FF2897"/>
<path d="M23.832 14.5V7.42H21.048V6.1H28.176V7.42H25.392V14.5H23.832ZM29.3468 14.5V6.1H32.8028C33.5468 6.1 34.1828 6.22 34.7108 6.46C35.2468 6.7 35.6588 7.044 35.9468 7.492C36.2348 7.94 36.3788 8.472 36.3788 9.088C36.3788 9.704 36.2348 10.236 35.9468 10.684C35.6588 11.124 35.2468 11.464 34.7108 11.704C34.1828 11.936 33.5468 12.052 32.8028 12.052H30.2108L30.9068 11.344V14.5H29.3468ZM34.8428 14.5L32.7188 11.452H34.3867L36.5228 14.5H34.8428ZM30.9068 11.512L30.2108 10.768H32.7308C33.4188 10.768 33.9348 10.62 34.2787 10.324C34.6308 10.028 34.8068 9.616 34.8068 9.088C34.8068 8.552 34.6308 8.14 34.2787 7.852C33.9348 7.564 33.4188 7.42 32.7308 7.42H30.2108L30.9068 6.652V11.512ZM41.7361 14.62C40.5841 14.62 39.6801 14.296 39.0241 13.648C38.3761 13 38.0521 12.064 38.0521 10.84V6.1H39.6121V10.78C39.6121 11.644 39.7961 12.272 40.1641 12.664C40.5401 13.056 41.0681 13.252 41.7481 13.252C42.4281 13.252 42.9521 13.056 43.3201 12.664C43.6881 12.272 43.8721 11.644 43.8721 10.78V6.1H45.4081V10.84C45.4081 12.064 45.0801 13 44.4241 13.648C43.7761 14.296 42.8801 14.62 41.7361 14.62ZM47.5928 14.5V6.1H48.8768L52.5488 12.232H51.8768L55.4888 6.1H56.7728L56.7848 14.5H55.3088L55.2968 8.416H55.6088L52.5368 13.54H51.8408L48.7208 8.416H49.0808V14.5H47.5928ZM59.0538 14.5V6.1H62.5098C63.2538 6.1 63.8898 6.22 64.4178 6.46C64.9538 6.7 65.3658 7.044 65.6538 7.492C65.9418 7.94 66.0858 8.472 66.0858 9.088C66.0858 9.704 65.9418 10.236 65.6538 10.684C65.3658 11.132 64.9538 11.476 64.4178 11.716C63.8898 11.956 63.2538 12.076 62.5098 12.076H59.9178L60.6138 11.344V14.5H59.0538ZM60.6138 11.512L59.9178 10.756H62.4378C63.1258 10.756 63.6418 10.612 63.9858 10.324C64.3378 10.028 64.5138 9.616 64.5138 9.088C64.5138 8.552 64.3378 8.14 63.9858 7.852C63.6418 7.564 63.1258 7.42 62.4378 7.42H59.9178L60.6138 6.652V11.512Z" fill="white"/>
<path d="M73.128 14.5V6.1H74.412L78.084 12.232H77.412L81.024 6.1H82.308L82.32 14.5H80.844L80.832 8.416H81.144L78.072 13.54H77.376L74.256 8.416H74.616V14.5H73.128ZM88.4769 14.62C87.8369 14.62 87.2409 14.516 86.6889 14.308C86.1449 14.092 85.6689 13.792 85.2609 13.408C84.8609 13.016 84.5489 12.556 84.3249 12.028C84.1009 11.5 83.9889 10.924 83.9889 10.3C83.9889 9.676 84.1009 9.1 84.3249 8.572C84.5489 8.044 84.8649 7.588 85.2729 7.204C85.6809 6.812 86.1569 6.512 86.7009 6.304C87.2449 6.088 87.8409 5.98 88.4889 5.98C89.1769 5.98 89.8049 6.1 90.3729 6.34C90.9409 6.572 91.4209 6.92 91.8129 7.384L90.8049 8.332C90.5009 8.004 90.1609 7.76 89.7849 7.6C89.4089 7.432 89.0009 7.348 88.5609 7.348C88.1209 7.348 87.7169 7.42 87.3489 7.564C86.9889 7.708 86.6729 7.912 86.4009 8.176C86.1369 8.44 85.9289 8.752 85.7769 9.112C85.6329 9.472 85.5609 9.868 85.5609 10.3C85.5609 10.732 85.6329 11.128 85.7769 11.488C85.9289 11.848 86.1369 12.16 86.4009 12.424C86.6729 12.688 86.9889 12.892 87.3489 13.036C87.7169 13.18 88.1209 13.252 88.5609 13.252C89.0009 13.252 89.4089 13.172 89.7849 13.012C90.1609 12.844 90.5009 12.592 90.8049 12.256L91.8129 13.216C91.4209 13.672 90.9409 14.02 90.3729 14.26C89.8049 14.5 89.1729 14.62 88.4769 14.62Z" fill="#888888"/>
<path d="M101.36 15.94V4.66H102.344V15.94H101.36ZM101.732 14.62C101.076 14.62 100.448 14.528 99.848 14.344C99.248 14.152 98.772 13.908 98.42 13.612L98.96 12.4C99.296 12.664 99.712 12.884 100.208 13.06C100.704 13.236 101.212 13.324 101.732 13.324C102.172 13.324 102.528 13.276 102.8 13.18C103.072 13.084 103.272 12.956 103.4 12.796C103.528 12.628 103.592 12.44 103.592 12.232C103.592 11.976 103.5 11.772 103.316 11.62C103.132 11.46 102.892 11.336 102.596 11.248C102.308 11.152 101.984 11.064 101.624 10.984C101.272 10.904 100.916 10.812 100.556 10.708C100.204 10.596 99.88 10.456 99.584 10.288C99.296 10.112 99.06 9.88 98.876 9.592C98.692 9.304 98.6 8.936 98.6 8.488C98.6 8.032 98.72 7.616 98.96 7.24C99.208 6.856 99.58 6.552 100.076 6.328C100.58 6.096 101.216 5.98 101.984 5.98C102.488 5.98 102.988 6.044 103.484 6.172C103.98 6.3 104.412 6.484 104.78 6.724L104.288 7.936C103.912 7.712 103.524 7.548 103.124 7.444C102.724 7.332 102.34 7.276 101.972 7.276C101.54 7.276 101.188 7.328 100.916 7.432C100.652 7.536 100.456 7.672 100.328 7.84C100.208 8.008 100.148 8.2 100.148 8.416C100.148 8.672 100.236 8.88 100.412 9.04C100.596 9.192 100.832 9.312 101.12 9.4C101.416 9.488 101.744 9.576 102.104 9.664C102.464 9.744 102.82 9.836 103.172 9.94C103.532 10.044 103.856 10.18 104.144 10.348C104.44 10.516 104.676 10.744 104.852 11.032C105.036 11.32 105.128 11.684 105.128 12.124C105.128 12.572 105.004 12.988 104.756 13.372C104.516 13.748 104.144 14.052 103.64 14.284C103.136 14.508 102.5 14.62 101.732 14.62ZM108.656 14.62C108.064 14.62 107.484 14.536 106.916 14.368C106.356 14.192 105.884 13.952 105.5 13.648L106.172 12.436C106.476 12.684 106.844 12.884 107.276 13.036C107.708 13.188 108.16 13.264 108.632 13.264C109.192 13.264 109.628 13.152 109.94 12.928C110.252 12.696 110.408 12.384 110.408 11.992C110.408 11.608 110.264 11.304 109.976 11.08C109.688 10.856 109.224 10.744 108.584 10.744H107.816V9.676L110.216 6.82L110.42 7.408H105.908V6.1H111.632V7.144L109.232 10L108.416 9.52H108.884C109.916 9.52 110.688 9.752 111.2 10.216C111.72 10.672 111.98 11.26 111.98 11.98C111.98 12.452 111.86 12.888 111.62 13.288C111.38 13.688 111.012 14.012 110.516 14.26C110.028 14.5 109.408 14.62 108.656 14.62ZM116.505 14.62C115.841 14.62 115.241 14.452 114.705 14.116C114.177 13.78 113.761 13.292 113.457 12.652C113.153 12.004 113.001 11.22 113.001 10.3C113.001 9.38 113.153 8.6 113.457 7.96C113.761 7.312 114.177 6.82 114.705 6.484C115.241 6.148 115.841 5.98 116.505 5.98C117.177 5.98 117.777 6.148 118.305 6.484C118.833 6.82 119.249 7.312 119.553 7.96C119.865 8.6 120.021 9.38 120.021 10.3C120.021 11.22 119.865 12.004 119.553 12.652C119.249 13.292 118.833 13.78 118.305 14.116C117.777 14.452 117.177 14.62 116.505 14.62ZM116.505 13.264C116.897 13.264 117.237 13.16 117.525 12.952C117.813 12.736 118.037 12.408 118.197 11.968C118.365 11.528 118.449 10.972 118.449 10.3C118.449 9.62 118.365 9.064 118.197 8.632C118.037 8.192 117.813 7.868 117.525 7.66C117.237 7.444 116.897 7.336 116.505 7.336C116.129 7.336 115.793 7.444 115.497 7.66C115.209 7.868 114.981 8.192 114.813 8.632C114.653 9.064 114.573 9.62 114.573 10.3C114.573 10.972 114.653 11.528 114.813 11.968C114.981 12.408 115.209 12.736 115.497 12.952C115.793 13.16 116.129 13.264 116.505 13.264ZM124.579 14.62C123.915 14.62 123.315 14.452 122.779 14.116C122.251 13.78 121.835 13.292 121.531 12.652C121.227 12.004 121.075 11.22 121.075 10.3C121.075 9.38 121.227 8.6 121.531 7.96C121.835 7.312 122.251 6.82 122.779 6.484C123.315 6.148 123.915 5.98 124.579 5.98C125.251 5.98 125.851 6.148 126.379 6.484C126.907 6.82 127.323 7.312 127.627 7.96C127.939 8.6 128.095 9.38 128.095 10.3C128.095 11.22 127.939 12.004 127.627 12.652C127.323 13.292 126.907 13.78 126.379 14.116C125.851 14.452 125.251 14.62 124.579 14.62ZM124.579 13.264C124.971 13.264 125.311 13.16 125.599 12.952C125.887 12.736 126.111 12.408 126.271 11.968C126.439 11.528 126.523 10.972 126.523 10.3C126.523 9.62 126.439 9.064 126.271 8.632C126.111 8.192 125.887 7.868 125.599 7.66C125.311 7.444 124.971 7.336 124.579 7.336C124.203 7.336 123.867 7.444 123.571 7.66C123.283 7.868 123.055 8.192 122.887 8.632C122.727 9.064 122.647 9.62 122.647 10.3C122.647 10.972 122.727 11.528 122.887 11.968C123.055 12.408 123.283 12.736 123.571 12.952C123.867 13.16 124.203 13.264 124.579 13.264ZM131.141 12.52L131.057 10.672L135.461 6.1H137.213L133.553 9.988L132.689 10.936L131.141 12.52ZM129.749 14.5V6.1H131.309V14.5H129.749ZM135.605 14.5L132.389 10.672L133.421 9.532L137.429 14.5H135.605Z" fill="#CDD500"/>
<path d="M143 20V6.25H145.5V17.5H156.75V20H143ZM149.25 13.75V0H151.75V11.25H163V13.75H149.25Z" fill="#FF2897"/>
<path d="M171.312 14.62C170.72 14.62 170.14 14.536 169.572 14.368C169.012 14.192 168.54 13.952 168.156 13.648L168.816 12.436C169.12 12.684 169.488 12.884 169.92 13.036C170.36 13.188 170.816 13.264 171.288 13.264C171.84 13.264 172.272 13.148 172.584 12.916C172.904 12.684 173.064 12.372 173.064 11.98C173.064 11.716 172.996 11.484 172.86 11.284C172.732 11.084 172.5 10.932 172.164 10.828C171.836 10.724 171.384 10.672 170.808 10.672H168.78L169.212 6.1H174.144V7.408H169.788L170.604 6.664L170.28 10.084L169.464 9.352H171.156C171.988 9.352 172.656 9.464 173.16 9.688C173.672 9.904 174.044 10.208 174.276 10.6C174.516 10.984 174.636 11.424 174.636 11.92C174.636 12.408 174.516 12.856 174.276 13.264C174.036 13.672 173.668 14 173.172 14.248C172.684 14.496 172.064 14.62 171.312 14.62ZM179.04 14.62C178.376 14.62 177.776 14.452 177.24 14.116C176.712 13.78 176.296 13.292 175.992 12.652C175.688 12.004 175.536 11.22 175.536 10.3C175.536 9.38 175.688 8.6 175.992 7.96C176.296 7.312 176.712 6.82 177.24 6.484C177.776 6.148 178.376 5.98 179.04 5.98C179.712 5.98 180.312 6.148 180.84 6.484C181.368 6.82 181.784 7.312 182.088 7.96C182.4 8.6 182.556 9.38 182.556 10.3C182.556 11.22 182.4 12.004 182.088 12.652C181.784 13.292 181.368 13.78 180.84 14.116C180.312 14.452 179.712 14.62 179.04 14.62ZM179.04 13.264C179.432 13.264 179.772 13.16 180.06 12.952C180.348 12.736 180.572 12.408 180.732 11.968C180.9 11.528 180.984 10.972 180.984 10.3C180.984 9.62 180.9 9.064 180.732 8.632C180.572 8.192 180.348 7.868 180.06 7.66C179.772 7.444 179.432 7.336 179.04 7.336C178.664 7.336 178.328 7.444 178.032 7.66C177.744 7.868 177.516 8.192 177.348 8.632C177.188 9.064 177.108 9.62 177.108 10.3C177.108 10.972 177.188 11.528 177.348 11.968C177.516 12.408 177.744 12.736 178.032 12.952C178.328 13.16 178.664 13.264 179.04 13.264ZM184.786 14.5L190.522 6.1H191.698L185.962 14.5H184.786ZM185.482 10.624C185.09 10.624 184.742 10.528 184.438 10.336C184.134 10.144 183.898 9.876 183.73 9.532C183.562 9.188 183.478 8.784 183.478 8.32C183.478 7.856 183.562 7.452 183.73 7.108C183.898 6.764 184.134 6.496 184.438 6.304C184.742 6.112 185.09 6.016 185.482 6.016C185.89 6.016 186.242 6.112 186.538 6.304C186.842 6.496 187.078 6.764 187.246 7.108C187.414 7.452 187.498 7.856 187.498 8.32C187.498 8.784 187.414 9.188 187.246 9.532C187.078 9.876 186.842 10.144 186.538 10.336C186.242 10.528 185.89 10.624 185.482 10.624ZM185.494 9.784C185.814 9.784 186.062 9.66 186.238 9.412C186.422 9.156 186.514 8.792 186.514 8.32C186.514 7.848 186.422 7.488 186.238 7.24C186.062 6.984 185.814 6.856 185.494 6.856C185.174 6.856 184.918 6.984 184.726 7.24C184.542 7.496 184.45 7.856 184.45 8.32C184.45 8.784 184.542 9.144 184.726 9.4C184.918 9.656 185.174 9.784 185.494 9.784ZM190.99 14.584C190.598 14.584 190.25 14.488 189.946 14.296C189.642 14.104 189.406 13.836 189.238 13.492C189.07 13.148 188.986 12.744 188.986 12.28C188.986 11.816 189.07 11.412 189.238 11.068C189.406 10.724 189.642 10.456 189.946 10.264C190.25 10.072 190.598 9.976 190.99 9.976C191.398 9.976 191.75 10.072 192.046 10.264C192.35 10.456 192.586 10.724 192.754 11.068C192.922 11.412 193.006 11.816 193.006 12.28C193.006 12.744 192.922 13.148 192.754 13.492C192.586 13.836 192.35 14.104 192.046 14.296C191.75 14.488 191.398 14.584 190.99 14.584ZM190.99 13.744C191.31 13.744 191.562 13.616 191.746 13.36C191.93 13.104 192.022 12.744 192.022 12.28C192.022 11.816 191.93 11.456 191.746 11.2C191.562 10.944 191.31 10.816 190.99 10.816C190.678 10.816 190.426 10.944 190.234 11.2C190.05 11.448 189.958 11.808 189.958 12.28C189.958 12.752 190.05 13.116 190.234 13.372C190.426 13.62 190.678 13.744 190.99 13.744Z" fill="white"/>
<path d="M211 11H213V6H211V11ZM212 14C212.283 14 212.521 13.9042 212.713 13.7125C212.904 13.5208 213 13.2833 213 13C213 12.7167 212.904 12.4792 212.713 12.2875C212.521 12.0958 212.283 12 212 12C211.717 12 211.479 12.0958 211.287 12.2875C211.096 12.4792 211 12.7167 211 13C211 13.2833 211.096 13.5208 211.287 13.7125C211.479 13.9042 211.717 14 212 14ZM204 17V15H206V8C206 6.61667 206.417 5.3875 207.25 4.3125C208.083 3.2375 209.167 2.53333 210.5 2.2V1.5C210.5 1.08333 210.646 0.729167 210.938 0.4375C211.229 0.145833 211.583 0 212 0C212.417 0 212.771 0.145833 213.062 0.4375C213.354 0.729167 213.5 1.08333 213.5 1.5V2.2C214.833 2.53333 215.917 3.2375 216.75 4.3125C217.583 5.3875 218 6.61667 218 8V15H220V17H204ZM212 20C211.45 20 210.979 19.8042 210.588 19.4125C210.196 19.0208 210 18.55 210 18H214C214 18.55 213.804 19.0208 213.412 19.4125C213.021 19.8042 212.55 20 212 20ZM208 15H216V8C216 6.9 215.608 5.95833 214.825 5.175C214.042 4.39167 213.1 4 212 4C210.9 4 209.958 4.39167 209.175 5.175C208.392 5.95833 208 6.9 208 8V15Z" fill="#FF2897"/>
<path d="M227.832 14.5V7.42H225.048V6.1H232.176V7.42H229.392V14.5H227.832ZM233.347 14.5V6.1H236.803C237.547 6.1 238.183 6.22 238.711 6.46C239.247 6.7 239.659 7.044 239.947 7.492C240.235 7.94 240.379 8.472 240.379 9.088C240.379 9.704 240.235 10.236 239.947 10.684C239.659 11.124 239.247 11.464 238.711 11.704C238.183 11.936 237.547 12.052 236.803 12.052H234.211L234.907 11.344V14.5H233.347ZM238.843 14.5L236.719 11.452H238.387L240.523 14.5H238.843ZM234.907 11.512L234.211 10.768H236.731C237.419 10.768 237.935 10.62 238.279 10.324C238.631 10.028 238.807 9.616 238.807 9.088C238.807 8.552 238.631 8.14 238.279 7.852C237.935 7.564 237.419 7.42 236.731 7.42H234.211L234.907 6.652V11.512ZM245.736 14.62C244.584 14.62 243.68 14.296 243.024 13.648C242.376 13 242.052 12.064 242.052 10.84V6.1H243.612V10.78C243.612 11.644 243.796 12.272 244.164 12.664C244.54 13.056 245.068 13.252 245.748 13.252C246.428 13.252 246.952 13.056 247.32 12.664C247.688 12.272 247.872 11.644 247.872 10.78V6.1H249.408V10.84C249.408 12.064 249.08 13 248.424 13.648C247.776 14.296 246.88 14.62 245.736 14.62ZM251.593 14.5V6.1H252.877L256.549 12.232H255.877L259.489 6.1H260.773L260.785 14.5H259.309L259.297 8.416H259.609L256.537 13.54H255.841L252.721 8.416H253.081V14.5H251.593ZM263.054 14.5V6.1H266.51C267.254 6.1 267.89 6.22 268.418 6.46C268.954 6.7 269.366 7.044 269.654 7.492C269.942 7.94 270.086 8.472 270.086 9.088C270.086 9.704 269.942 10.236 269.654 10.684C269.366 11.132 268.954 11.476 268.418 11.716C267.89 11.956 267.254 12.076 266.51 12.076H263.918L264.614 11.344V14.5H263.054ZM264.614 11.512L263.918 10.756H266.438C267.126 10.756 267.642 10.612 267.986 10.324C268.338 10.028 268.514 9.616 268.514 9.088C268.514 8.552 268.338 8.14 267.986 7.852C267.642 7.564 267.126 7.42 266.438 7.42H263.918L264.614 6.652V11.512Z" fill="white"/>
<path d="M277.128 14.5V6.1H278.412L282.084 12.232H281.412L285.024 6.1H286.308L286.32 14.5H284.844L284.832 8.416H285.144L282.072 13.54H281.376L278.256 8.416H278.616V14.5H277.128ZM292.477 14.62C291.837 14.62 291.241 14.516 290.689 14.308C290.145 14.092 289.669 13.792 289.261 13.408C288.861 13.016 288.549 12.556 288.325 12.028C288.101 11.5 287.989 10.924 287.989 10.3C287.989 9.676 288.101 9.1 288.325 8.572C288.549 8.044 288.865 7.588 289.273 7.204C289.681 6.812 290.157 6.512 290.701 6.304C291.245 6.088 291.841 5.98 292.489 5.98C293.177 5.98 293.805 6.1 294.373 6.34C294.941 6.572 295.421 6.92 295.813 7.384L294.805 8.332C294.501 8.004 294.161 7.76 293.785 7.6C293.409 7.432 293.001 7.348 292.561 7.348C292.121 7.348 291.717 7.42 291.349 7.564C290.989 7.708 290.673 7.912 290.401 8.176C290.137 8.44 289.929 8.752 289.777 9.112C289.633 9.472 289.561 9.868 289.561 10.3C289.561 10.732 289.633 11.128 289.777 11.488C289.929 11.848 290.137 12.16 290.401 12.424C290.673 12.688 290.989 12.892 291.349 13.036C291.717 13.18 292.121 13.252 292.561 13.252C293.001 13.252 293.409 13.172 293.785 13.012C294.161 12.844 294.501 12.592 294.805 12.256L295.813 13.216C295.421 13.672 294.941 14.02 294.373 14.26C293.805 14.5 293.173 14.62 292.477 14.62Z" fill="#888888"/>
<path d="M305.36 15.94V4.66H306.344V15.94H305.36ZM305.732 14.62C305.076 14.62 304.448 14.528 303.848 14.344C303.248 14.152 302.772 13.908 302.42 13.612L302.96 12.4C303.296 12.664 303.712 12.884 304.208 13.06C304.704 13.236 305.212 13.324 305.732 13.324C306.172 13.324 306.528 13.276 306.8 13.18C307.072 13.084 307.272 12.956 307.4 12.796C307.528 12.628 307.592 12.44 307.592 12.232C307.592 11.976 307.5 11.772 307.316 11.62C307.132 11.46 306.892 11.336 306.596 11.248C306.308 11.152 305.984 11.064 305.624 10.984C305.272 10.904 304.916 10.812 304.556 10.708C304.204 10.596 303.88 10.456 303.584 10.288C303.296 10.112 303.06 9.88 302.876 9.592C302.692 9.304 302.6 8.936 302.6 8.488C302.6 8.032 302.72 7.616 302.96 7.24C303.208 6.856 303.58 6.552 304.076 6.328C304.58 6.096 305.216 5.98 305.984 5.98C306.488 5.98 306.988 6.044 307.484 6.172C307.98 6.3 308.412 6.484 308.78 6.724L308.288 7.936C307.912 7.712 307.524 7.548 307.124 7.444C306.724 7.332 306.34 7.276 305.972 7.276C305.54 7.276 305.188 7.328 304.916 7.432C304.652 7.536 304.456 7.672 304.328 7.84C304.208 8.008 304.148 8.2 304.148 8.416C304.148 8.672 304.236 8.88 304.412 9.04C304.596 9.192 304.832 9.312 305.12 9.4C305.416 9.488 305.744 9.576 306.104 9.664C306.464 9.744 306.82 9.836 307.172 9.94C307.532 10.044 307.856 10.18 308.144 10.348C308.44 10.516 308.676 10.744 308.852 11.032C309.036 11.32 309.128 11.684 309.128 12.124C309.128 12.572 309.004 12.988 308.756 13.372C308.516 13.748 308.144 14.052 307.64 14.284C307.136 14.508 306.5 14.62 305.732 14.62ZM312.656 14.62C312.064 14.62 311.484 14.536 310.916 14.368C310.356 14.192 309.884 13.952 309.5 13.648L310.172 12.436C310.476 12.684 310.844 12.884 311.276 13.036C311.708 13.188 312.16 13.264 312.632 13.264C313.192 13.264 313.628 13.152 313.94 12.928C314.252 12.696 314.408 12.384 314.408 11.992C314.408 11.608 314.264 11.304 313.976 11.08C313.688 10.856 313.224 10.744 312.584 10.744H311.816V9.676L314.216 6.82L314.42 7.408H309.908V6.1H315.632V7.144L313.232 10L312.416 9.52H312.884C313.916 9.52 314.688 9.752 315.2 10.216C315.72 10.672 315.98 11.26 315.98 11.98C315.98 12.452 315.86 12.888 315.62 13.288C315.38 13.688 315.012 14.012 314.516 14.26C314.028 14.5 313.408 14.62 312.656 14.62ZM320.505 14.62C319.841 14.62 319.241 14.452 318.705 14.116C318.177 13.78 317.761 13.292 317.457 12.652C317.153 12.004 317.001 11.22 317.001 10.3C317.001 9.38 317.153 8.6 317.457 7.96C317.761 7.312 318.177 6.82 318.705 6.484C319.241 6.148 319.841 5.98 320.505 5.98C321.177 5.98 321.777 6.148 322.305 6.484C322.833 6.82 323.249 7.312 323.553 7.96C323.865 8.6 324.021 9.38 324.021 10.3C324.021 11.22 323.865 12.004 323.553 12.652C323.249 13.292 322.833 13.78 322.305 14.116C321.777 14.452 321.177 14.62 320.505 14.62ZM320.505 13.264C320.897 13.264 321.237 13.16 321.525 12.952C321.813 12.736 322.037 12.408 322.197 11.968C322.365 11.528 322.449 10.972 322.449 10.3C322.449 9.62 322.365 9.064 322.197 8.632C322.037 8.192 321.813 7.868 321.525 7.66C321.237 7.444 320.897 7.336 320.505 7.336C320.129 7.336 319.793 7.444 319.497 7.66C319.209 7.868 318.981 8.192 318.813 8.632C318.653 9.064 318.573 9.62 318.573 10.3C318.573 10.972 318.653 11.528 318.813 11.968C318.981 12.408 319.209 12.736 319.497 12.952C319.793 13.16 320.129 13.264 320.505 13.264ZM328.579 14.62C327.915 14.62 327.315 14.452 326.779 14.116C326.251 13.78 325.835 13.292 325.531 12.652C325.227 12.004 325.075 11.22 325.075 10.3C325.075 9.38 325.227 8.6 325.531 7.96C325.835 7.312 326.251 6.82 326.779 6.484C327.315 6.148 327.915 5.98 328.579 5.98C329.251 5.98 329.851 6.148 330.379 6.484C330.907 6.82 331.323 7.312 331.627 7.96C331.939 8.6 332.095 9.38 332.095 10.3C332.095 11.22 331.939 12.004 331.627 12.652C331.323 13.292 330.907 13.78 330.379 14.116C329.851 14.452 329.251 14.62 328.579 14.62ZM328.579 13.264C328.971 13.264 329.311 13.16 329.599 12.952C329.887 12.736 330.111 12.408 330.271 11.968C330.439 11.528 330.523 10.972 330.523 10.3C330.523 9.62 330.439 9.064 330.271 8.632C330.111 8.192 329.887 7.868 329.599 7.66C329.311 7.444 328.971 7.336 328.579 7.336C328.203 7.336 327.867 7.444 327.571 7.66C327.283 7.868 327.055 8.192 326.887 8.632C326.727 9.064 326.647 9.62 326.647 10.3C326.647 10.972 326.727 11.528 326.887 11.968C327.055 12.408 327.283 12.736 327.571 12.952C327.867 13.16 328.203 13.264 328.579 13.264ZM335.141 12.52L335.057 10.672L339.461 6.1H341.213L337.553 9.988L336.689 10.936L335.141 12.52ZM333.749 14.5V6.1H335.309V14.5H333.749ZM339.605 14.5L336.389 10.672L337.421 9.532L341.429 14.5H339.605Z" fill="#CDD500"/>
<path d="M367 0V13.75H364.5V2.5H353.25V0H367ZM360.75 6.25V20H358.25V8.75H347V6.25L360.75 6.25Z" fill="#44E19F"/>
<path d="M375.312 14.62C374.72 14.62 374.14 14.536 373.572 14.368C373.012 14.192 372.54 13.952 372.156 13.648L372.816 12.436C373.12 12.684 373.488 12.884 373.92 13.036C374.36 13.188 374.816 13.264 375.288 13.264C375.84 13.264 376.272 13.148 376.584 12.916C376.904 12.684 377.064 12.372 377.064 11.98C377.064 11.716 376.996 11.484 376.86 11.284C376.732 11.084 376.5 10.932 376.164 10.828C375.836 10.724 375.384 10.672 374.808 10.672H372.78L373.212 6.1H378.144V7.408H373.788L374.604 6.664L374.28 10.084L373.464 9.352H375.156C375.988 9.352 376.656 9.464 377.16 9.688C377.672 9.904 378.044 10.208 378.276 10.6C378.516 10.984 378.636 11.424 378.636 11.92C378.636 12.408 378.516 12.856 378.276 13.264C378.036 13.672 377.668 14 377.172 14.248C376.684 14.496 376.064 14.62 375.312 14.62ZM383.04 14.62C382.376 14.62 381.776 14.452 381.24 14.116C380.712 13.78 380.296 13.292 379.992 12.652C379.688 12.004 379.536 11.22 379.536 10.3C379.536 9.38 379.688 8.6 379.992 7.96C380.296 7.312 380.712 6.82 381.24 6.484C381.776 6.148 382.376 5.98 383.04 5.98C383.712 5.98 384.312 6.148 384.84 6.484C385.368 6.82 385.784 7.312 386.088 7.96C386.4 8.6 386.556 9.38 386.556 10.3C386.556 11.22 386.4 12.004 386.088 12.652C385.784 13.292 385.368 13.78 384.84 14.116C384.312 14.452 383.712 14.62 383.04 14.62ZM383.04 13.264C383.432 13.264 383.772 13.16 384.06 12.952C384.348 12.736 384.572 12.408 384.732 11.968C384.9 11.528 384.984 10.972 384.984 10.3C384.984 9.62 384.9 9.064 384.732 8.632C384.572 8.192 384.348 7.868 384.06 7.66C383.772 7.444 383.432 7.336 383.04 7.336C382.664 7.336 382.328 7.444 382.032 7.66C381.744 7.868 381.516 8.192 381.348 8.632C381.188 9.064 381.108 9.62 381.108 10.3C381.108 10.972 381.188 11.528 381.348 11.968C381.516 12.408 381.744 12.736 382.032 12.952C382.328 13.16 382.664 13.264 383.04 13.264ZM388.786 14.5L394.522 6.1H395.698L389.962 14.5H388.786ZM389.482 10.624C389.09 10.624 388.742 10.528 388.438 10.336C388.134 10.144 387.898 9.876 387.73 9.532C387.562 9.188 387.478 8.784 387.478 8.32C387.478 7.856 387.562 7.452 387.73 7.108C387.898 6.764 388.134 6.496 388.438 6.304C388.742 6.112 389.09 6.016 389.482 6.016C389.89 6.016 390.242 6.112 390.538 6.304C390.842 6.496 391.078 6.764 391.246 7.108C391.414 7.452 391.498 7.856 391.498 8.32C391.498 8.784 391.414 9.188 391.246 9.532C391.078 9.876 390.842 10.144 390.538 10.336C390.242 10.528 389.89 10.624 389.482 10.624ZM389.494 9.784C389.814 9.784 390.062 9.66 390.238 9.412C390.422 9.156 390.514 8.792 390.514 8.32C390.514 7.848 390.422 7.488 390.238 7.24C390.062 6.984 389.814 6.856 389.494 6.856C389.174 6.856 388.918 6.984 388.726 7.24C388.542 7.496 388.45 7.856 388.45 8.32C388.45 8.784 388.542 9.144 388.726 9.4C388.918 9.656 389.174 9.784 389.494 9.784ZM394.99 14.584C394.598 14.584 394.25 14.488 393.946 14.296C393.642 14.104 393.406 13.836 393.238 13.492C393.07 13.148 392.986 12.744 392.986 12.28C392.986 11.816 393.07 11.412 393.238 11.068C393.406 10.724 393.642 10.456 393.946 10.264C394.25 10.072 394.598 9.976 394.99 9.976C395.398 9.976 395.75 10.072 396.046 10.264C396.35 10.456 396.586 10.724 396.754 11.068C396.922 11.412 397.006 11.816 397.006 12.28C397.006 12.744 396.922 13.148 396.754 13.492C396.586 13.836 396.35 14.104 396.046 14.296C395.75 14.488 395.398 14.584 394.99 14.584ZM394.99 13.744C395.31 13.744 395.562 13.616 395.746 13.36C395.93 13.104 396.022 12.744 396.022 12.28C396.022 11.816 395.93 11.456 395.746 11.2C395.562 10.944 395.31 10.816 394.99 10.816C394.678 10.816 394.426 10.944 394.234 11.2C394.05 11.448 393.958 11.808 393.958 12.28C393.958 12.752 394.05 13.116 394.234 13.372C394.426 13.62 394.678 13.744 394.99 13.744Z" fill="white"/>
<path d="M415 11H417V6H415V11ZM416 14C416.283 14 416.521 13.9042 416.713 13.7125C416.904 13.5208 417 13.2833 417 13C417 12.7167 416.904 12.4792 416.713 12.2875C416.521 12.0958 416.283 12 416 12C415.717 12 415.479 12.0958 415.287 12.2875C415.096 12.4792 415 12.7167 415 13C415 13.2833 415.096 13.5208 415.287 13.7125C415.479 13.9042 415.717 14 416 14ZM408 17V15H410V8C410 6.61667 410.417 5.3875 411.25 4.3125C412.083 3.2375 413.167 2.53333 414.5 2.2V1.5C414.5 1.08333 414.646 0.729167 414.938 0.4375C415.229 0.145833 415.583 0 416 0C416.417 0 416.771 0.145833 417.062 0.4375C417.354 0.729167 417.5 1.08333 417.5 1.5V2.2C418.833 2.53333 419.917 3.2375 420.75 4.3125C421.583 5.3875 422 6.61667 422 8V15H424V17H408ZM416 20C415.45 20 414.979 19.8042 414.588 19.4125C414.196 19.0208 414 18.55 414 18H418C418 18.55 417.804 19.0208 417.413 19.4125C417.021 19.8042 416.55 20 416 20ZM412 15H420V8C420 6.9 419.608 5.95833 418.825 5.175C418.042 4.39167 417.1 4 416 4C414.9 4 413.958 4.39167 413.175 5.175C412.392 5.95833 412 6.9 412 8V15Z" fill="#FF2897"/>
<path d="M431.832 14.5V7.42H429.048V6.1H436.176V7.42H433.392V14.5H431.832ZM437.347 14.5V6.1H440.803C441.547 6.1 442.183 6.22 442.711 6.46C443.247 6.7 443.659 7.044 443.947 7.492C444.235 7.94 444.379 8.472 444.379 9.088C444.379 9.704 444.235 10.236 443.947 10.684C443.659 11.124 443.247 11.464 442.711 11.704C442.183 11.936 441.547 12.052 440.803 12.052H438.211L438.907 11.344V14.5H437.347ZM442.843 14.5L440.719 11.452H442.387L444.523 14.5H442.843ZM438.907 11.512L438.211 10.768H440.731C441.419 10.768 441.935 10.62 442.279 10.324C442.631 10.028 442.807 9.616 442.807 9.088C442.807 8.552 442.631 8.14 442.279 7.852C441.935 7.564 441.419 7.42 440.731 7.42H438.211L438.907 6.652V11.512ZM449.736 14.62C448.584 14.62 447.68 14.296 447.024 13.648C446.376 13 446.052 12.064 446.052 10.84V6.1H447.612V10.78C447.612 11.644 447.796 12.272 448.164 12.664C448.54 13.056 449.068 13.252 449.748 13.252C450.428 13.252 450.952 13.056 451.32 12.664C451.688 12.272 451.872 11.644 451.872 10.78V6.1H453.408V10.84C453.408 12.064 453.08 13 452.424 13.648C451.776 14.296 450.88 14.62 449.736 14.62ZM455.593 14.5V6.1H456.877L460.549 12.232H459.877L463.489 6.1H464.773L464.785 14.5H463.309L463.297 8.416H463.609L460.537 13.54H459.841L456.721 8.416H457.081V14.5H455.593ZM467.054 14.5V6.1H470.51C471.254 6.1 471.89 6.22 472.418 6.46C472.954 6.7 473.366 7.044 473.654 7.492C473.942 7.94 474.086 8.472 474.086 9.088C474.086 9.704 473.942 10.236 473.654 10.684C473.366 11.132 472.954 11.476 472.418 11.716C471.89 11.956 471.254 12.076 470.51 12.076H467.918L468.614 11.344V14.5H467.054ZM468.614 11.512L467.918 10.756H470.438C471.126 10.756 471.642 10.612 471.986 10.324C472.338 10.028 472.514 9.616 472.514 9.088C472.514 8.552 472.338 8.14 471.986 7.852C471.642 7.564 471.126 7.42 470.438 7.42H467.918L468.614 6.652V11.512Z" fill="white"/>
<path d="M481.128 14.5V6.1H482.412L486.084 12.232H485.412L489.024 6.1H490.308L490.32 14.5H488.844L488.832 8.416H489.144L486.072 13.54H485.376L482.256 8.416H482.616V14.5H481.128ZM496.477 14.62C495.837 14.62 495.241 14.516 494.689 14.308C494.145 14.092 493.669 13.792 493.261 13.408C492.861 13.016 492.549 12.556 492.325 12.028C492.101 11.5 491.989 10.924 491.989 10.3C491.989 9.676 492.101 9.1 492.325 8.572C492.549 8.044 492.865 7.588 493.273 7.204C493.681 6.812 494.157 6.512 494.701 6.304C495.245 6.088 495.841 5.98 496.489 5.98C497.177 5.98 497.805 6.1 498.373 6.34C498.941 6.572 499.421 6.92 499.813 7.384L498.805 8.332C498.501 8.004 498.161 7.76 497.785 7.6C497.409 7.432 497.001 7.348 496.561 7.348C496.121 7.348 495.717 7.42 495.349 7.564C494.989 7.708 494.673 7.912 494.401 8.176C494.137 8.44 493.929 8.752 493.777 9.112C493.633 9.472 493.561 9.868 493.561 10.3C493.561 10.732 493.633 11.128 493.777 11.488C493.929 11.848 494.137 12.16 494.401 12.424C494.673 12.688 494.989 12.892 495.349 13.036C495.717 13.18 496.121 13.252 496.561 13.252C497.001 13.252 497.409 13.172 497.785 13.012C498.161 12.844 498.501 12.592 498.805 12.256L499.813 13.216C499.421 13.672 498.941 14.02 498.373 14.26C497.805 14.5 497.173 14.62 496.477 14.62Z" fill="#888888"/>
<path d="M509.36 15.94V4.66H510.344V15.94H509.36ZM509.732 14.62C509.076 14.62 508.448 14.528 507.848 14.344C507.248 14.152 506.772 13.908 506.42 13.612L506.96 12.4C507.296 12.664 507.712 12.884 508.208 13.06C508.704 13.236 509.212 13.324 509.732 13.324C510.172 13.324 510.528 13.276 510.8 13.18C511.072 13.084 511.272 12.956 511.4 12.796C511.528 12.628 511.592 12.44 511.592 12.232C511.592 11.976 511.5 11.772 511.316 11.62C511.132 11.46 510.892 11.336 510.596 11.248C510.308 11.152 509.984 11.064 509.624 10.984C509.272 10.904 508.916 10.812 508.556 10.708C508.204 10.596 507.88 10.456 507.584 10.288C507.296 10.112 507.06 9.88 506.876 9.592C506.692 9.304 506.6 8.936 506.6 8.488C506.6 8.032 506.72 7.616 506.96 7.24C507.208 6.856 507.58 6.552 508.076 6.328C508.58 6.096 509.216 5.98 509.984 5.98C510.488 5.98 510.988 6.044 511.484 6.172C511.98 6.3 512.412 6.484 512.78 6.724L512.288 7.936C511.912 7.712 511.524 7.548 511.124 7.444C510.724 7.332 510.34 7.276 509.972 7.276C509.54 7.276 509.188 7.328 508.916 7.432C508.652 7.536 508.456 7.672 508.328 7.84C508.208 8.008 508.148 8.2 508.148 8.416C508.148 8.672 508.236 8.88 508.412 9.04C508.596 9.192 508.832 9.312 509.12 9.4C509.416 9.488 509.744 9.576 510.104 9.664C510.464 9.744 510.82 9.836 511.172 9.94C511.532 10.044 511.856 10.18 512.144 10.348C512.44 10.516 512.676 10.744 512.852 11.032C513.036 11.32 513.128 11.684 513.128 12.124C513.128 12.572 513.004 12.988 512.756 13.372C512.516 13.748 512.144 14.052 511.64 14.284C511.136 14.508 510.5 14.62 509.732 14.62ZM516.656 14.62C516.064 14.62 515.484 14.536 514.916 14.368C514.356 14.192 513.884 13.952 513.5 13.648L514.172 12.436C514.476 12.684 514.844 12.884 515.276 13.036C515.708 13.188 516.16 13.264 516.632 13.264C517.192 13.264 517.628 13.152 517.94 12.928C518.252 12.696 518.408 12.384 518.408 11.992C518.408 11.608 518.264 11.304 517.976 11.08C517.688 10.856 517.224 10.744 516.584 10.744H515.816V9.676L518.216 6.82L518.42 7.408H513.908V6.1H519.632V7.144L517.232 10L516.416 9.52H516.884C517.916 9.52 518.688 9.752 519.2 10.216C519.72 10.672 519.98 11.26 519.98 11.98C519.98 12.452 519.86 12.888 519.62 13.288C519.38 13.688 519.012 14.012 518.516 14.26C518.028 14.5 517.408 14.62 516.656 14.62ZM524.505 14.62C523.841 14.62 523.241 14.452 522.705 14.116C522.177 13.78 521.761 13.292 521.457 12.652C521.153 12.004 521.001 11.22 521.001 10.3C521.001 9.38 521.153 8.6 521.457 7.96C521.761 7.312 522.177 6.82 522.705 6.484C523.241 6.148 523.841 5.98 524.505 5.98C525.177 5.98 525.777 6.148 526.305 6.484C526.833 6.82 527.249 7.312 527.553 7.96C527.865 8.6 528.021 9.38 528.021 10.3C528.021 11.22 527.865 12.004 527.553 12.652C527.249 13.292 526.833 13.78 526.305 14.116C525.777 14.452 525.177 14.62 524.505 14.62ZM524.505 13.264C524.897 13.264 525.237 13.16 525.525 12.952C525.813 12.736 526.037 12.408 526.197 11.968C526.365 11.528 526.449 10.972 526.449 10.3C526.449 9.62 526.365 9.064 526.197 8.632C526.037 8.192 525.813 7.868 525.525 7.66C525.237 7.444 524.897 7.336 524.505 7.336C524.129 7.336 523.793 7.444 523.497 7.66C523.209 7.868 522.981 8.192 522.813 8.632C522.653 9.064 522.573 9.62 522.573 10.3C522.573 10.972 522.653 11.528 522.813 11.968C522.981 12.408 523.209 12.736 523.497 12.952C523.793 13.16 524.129 13.264 524.505 13.264ZM532.579 14.62C531.915 14.62 531.315 14.452 530.779 14.116C530.251 13.78 529.835 13.292 529.531 12.652C529.227 12.004 529.075 11.22 529.075 10.3C529.075 9.38 529.227 8.6 529.531 7.96C529.835 7.312 530.251 6.82 530.779 6.484C531.315 6.148 531.915 5.98 532.579 5.98C533.251 5.98 533.851 6.148 534.379 6.484C534.907 6.82 535.323 7.312 535.627 7.96C535.939 8.6 536.095 9.38 536.095 10.3C536.095 11.22 535.939 12.004 535.627 12.652C535.323 13.292 534.907 13.78 534.379 14.116C533.851 14.452 533.251 14.62 532.579 14.62ZM532.579 13.264C532.971 13.264 533.311 13.16 533.599 12.952C533.887 12.736 534.111 12.408 534.271 11.968C534.439 11.528 534.523 10.972 534.523 10.3C534.523 9.62 534.439 9.064 534.271 8.632C534.111 8.192 533.887 7.868 533.599 7.66C533.311 7.444 532.971 7.336 532.579 7.336C532.203 7.336 531.867 7.444 531.571 7.66C531.283 7.868 531.055 8.192 530.887 8.632C530.727 9.064 530.647 9.62 530.647 10.3C530.647 10.972 530.727 11.528 530.887 11.968C531.055 12.408 531.283 12.736 531.571 12.952C531.867 13.16 532.203 13.264 532.579 13.264ZM539.141 12.52L539.057 10.672L543.461 6.1H545.213L541.553 9.988L540.689 10.936L539.141 12.52ZM537.749 14.5V6.1H539.309V14.5H537.749ZM543.605 14.5L540.389 10.672L541.421 9.532L545.429 14.5H543.605Z" fill="#CDD500"/>
<path d="M571 0V13.75H568.5V2.5H557.25V0H571ZM564.75 6.25V20H562.25V8.75H551V6.25L564.75 6.25Z" fill="#44E19F"/>
<path d="M575.94 14.5L579.72 6.1H581.256L585.048 14.5H583.416L580.164 6.928H580.788L577.548 14.5H575.94ZM577.68 12.556L578.1 11.332H582.636L583.056 12.556H577.68ZM586.116 14.5V6.1H590.052C591.06 6.1 591.828 6.3 592.356 6.7C592.884 7.092 593.148 7.62 593.148 8.284C593.148 8.732 593.044 9.116 592.836 9.436C592.628 9.748 592.348 9.992 591.996 10.168C591.652 10.336 591.276 10.42 590.868 10.42L591.084 9.988C591.556 9.988 591.98 10.076 592.356 10.252C592.732 10.42 593.028 10.668 593.244 10.996C593.468 11.324 593.58 11.732 593.58 12.22C593.58 12.94 593.304 13.5 592.752 13.9C592.2 14.3 591.38 14.5 590.292 14.5H586.116ZM587.676 13.276H590.196C590.78 13.276 591.228 13.18 591.54 12.988C591.852 12.796 592.008 12.488 592.008 12.064C592.008 11.648 591.852 11.344 591.54 11.152C591.228 10.952 590.78 10.852 590.196 10.852H587.556V9.64H589.884C590.428 9.64 590.844 9.544 591.132 9.352C591.428 9.16 591.576 8.872 591.576 8.488C591.576 8.096 591.428 7.804 591.132 7.612C590.844 7.42 590.428 7.324 589.884 7.324H587.676V13.276ZM599.181 14.62C598.525 14.62 597.921 14.512 597.369 14.296C596.817 14.08 596.337 13.78 595.929 13.396C595.521 13.004 595.205 12.548 594.981 12.028C594.757 11.5 594.645 10.924 594.645 10.3C594.645 9.676 594.757 9.104 594.981 8.584C595.205 8.056 595.521 7.6 595.929 7.216C596.337 6.824 596.817 6.52 597.369 6.304C597.921 6.088 598.521 5.98 599.169 5.98C599.825 5.98 600.425 6.088 600.969 6.304C601.521 6.52 602.001 6.824 602.409 7.216C602.817 7.6 603.133 8.056 603.357 8.584C603.581 9.104 603.693 9.676 603.693 10.3C603.693 10.924 603.581 11.5 603.357 12.028C603.133 12.556 602.817 13.012 602.409 13.396C602.001 13.78 601.521 14.08 600.969 14.296C600.425 14.512 599.829 14.62 599.181 14.62ZM599.169 13.252C599.593 13.252 599.985 13.18 600.345 13.036C600.705 12.892 601.017 12.688 601.281 12.424C601.545 12.152 601.749 11.84 601.893 11.488C602.045 11.128 602.121 10.732 602.121 10.3C602.121 9.868 602.045 9.476 601.893 9.124C601.749 8.764 601.545 8.452 601.281 8.188C601.017 7.916 600.705 7.708 600.345 7.564C599.985 7.42 599.593 7.348 599.169 7.348C598.745 7.348 598.353 7.42 597.993 7.564C597.641 7.708 597.329 7.916 597.057 8.188C596.793 8.452 596.585 8.764 596.433 9.124C596.289 9.476 596.217 9.868 596.217 10.3C596.217 10.724 596.289 11.116 596.433 11.476C596.585 11.836 596.793 12.152 597.057 12.424C597.321 12.688 597.633 12.892 597.993 13.036C598.353 13.18 598.745 13.252 599.169 13.252ZM607.573 14.5L603.901 6.1H605.593L608.869 13.696H607.897L611.209 6.1H612.769L609.109 14.5H607.573ZM615.095 9.592H619.271V10.876H615.095V9.592ZM615.215 13.192H619.955V14.5H613.655V6.1H619.787V7.408H615.215V13.192Z" fill="white"/>
<path d="M627.128 14.5V6.1H628.412L632.084 12.232H631.412L635.024 6.1H636.308L636.32 14.5H634.844L634.832 8.416H635.144L632.072 13.54H631.376L628.256 8.416H628.616V14.5H627.128ZM642.477 14.62C641.837 14.62 641.241 14.516 640.689 14.308C640.145 14.092 639.669 13.792 639.261 13.408C638.861 13.016 638.549 12.556 638.325 12.028C638.101 11.5 637.989 10.924 637.989 10.3C637.989 9.676 638.101 9.1 638.325 8.572C638.549 8.044 638.865 7.588 639.273 7.204C639.681 6.812 640.157 6.512 640.701 6.304C641.245 6.088 641.841 5.98 642.489 5.98C643.177 5.98 643.805 6.1 644.373 6.34C644.941 6.572 645.421 6.92 645.813 7.384L644.805 8.332C644.501 8.004 644.161 7.76 643.785 7.6C643.409 7.432 643.001 7.348 642.561 7.348C642.121 7.348 641.717 7.42 641.349 7.564C640.989 7.708 640.673 7.912 640.401 8.176C640.137 8.44 639.929 8.752 639.777 9.112C639.633 9.472 639.561 9.868 639.561 10.3C639.561 10.732 639.633 11.128 639.777 11.488C639.929 11.848 640.137 12.16 640.401 12.424C640.673 12.688 640.989 12.892 641.349 13.036C641.717 13.18 642.121 13.252 642.561 13.252C643.001 13.252 643.409 13.172 643.785 13.012C644.161 12.844 644.501 12.592 644.805 12.256L645.813 13.216C645.421 13.672 644.941 14.02 644.373 14.26C643.805 14.5 643.173 14.62 642.477 14.62Z" fill="#888888"/>
<path d="M655.36 15.94V4.66H656.344V15.94H655.36ZM655.732 14.62C655.076 14.62 654.448 14.528 653.848 14.344C653.248 14.152 652.772 13.908 652.42 13.612L652.96 12.4C653.296 12.664 653.712 12.884 654.208 13.06C654.704 13.236 655.212 13.324 655.732 13.324C656.172 13.324 656.528 13.276 656.8 13.18C657.072 13.084 657.272 12.956 657.4 12.796C657.528 12.628 657.592 12.44 657.592 12.232C657.592 11.976 657.5 11.772 657.316 11.62C657.132 11.46 656.892 11.336 656.596 11.248C656.308 11.152 655.984 11.064 655.624 10.984C655.272 10.904 654.916 10.812 654.556 10.708C654.204 10.596 653.88 10.456 653.584 10.288C653.296 10.112 653.06 9.88 652.876 9.592C652.692 9.304 652.6 8.936 652.6 8.488C652.6 8.032 652.72 7.616 652.96 7.24C653.208 6.856 653.58 6.552 654.076 6.328C654.58 6.096 655.216 5.98 655.984 5.98C656.488 5.98 656.988 6.044 657.484 6.172C657.98 6.3 658.412 6.484 658.78 6.724L658.288 7.936C657.912 7.712 657.524 7.548 657.124 7.444C656.724 7.332 656.34 7.276 655.972 7.276C655.54 7.276 655.188 7.328 654.916 7.432C654.652 7.536 654.456 7.672 654.328 7.84C654.208 8.008 654.148 8.2 654.148 8.416C654.148 8.672 654.236 8.88 654.412 9.04C654.596 9.192 654.832 9.312 655.12 9.4C655.416 9.488 655.744 9.576 656.104 9.664C656.464 9.744 656.82 9.836 657.172 9.94C657.532 10.044 657.856 10.18 658.144 10.348C658.44 10.516 658.676 10.744 658.852 11.032C659.036 11.32 659.128 11.684 659.128 12.124C659.128 12.572 659.004 12.988 658.756 13.372C658.516 13.748 658.144 14.052 657.64 14.284C657.136 14.508 656.5 14.62 655.732 14.62ZM659.967 14.5V13.456L663.303 10.288C663.583 10.024 663.791 9.792 663.927 9.592C664.063 9.392 664.151 9.208 664.191 9.04C664.239 8.864 664.263 8.7 664.263 8.548C664.263 8.164 664.131 7.868 663.867 7.66C663.603 7.444 663.215 7.336 662.703 7.336C662.295 7.336 661.923 7.408 661.587 7.552C661.259 7.696 660.975 7.916 660.735 8.212L659.643 7.372C659.971 6.932 660.411 6.592 660.963 6.352C661.523 6.104 662.147 5.98 662.835 5.98C663.443 5.98 663.971 6.08 664.419 6.28C664.875 6.472 665.223 6.748 665.463 7.108C665.711 7.468 665.835 7.896 665.835 8.392C665.835 8.664 665.799 8.936 665.727 9.208C665.655 9.472 665.519 9.752 665.319 10.048C665.119 10.344 664.827 10.676 664.443 11.044L661.575 13.768L661.251 13.18H666.159V14.5H659.967ZM670.563 14.62C669.899 14.62 669.299 14.452 668.763 14.116C668.235 13.78 667.819 13.292 667.515 12.652C667.211 12.004 667.059 11.22 667.059 10.3C667.059 9.38 667.211 8.6 667.515 7.96C667.819 7.312 668.235 6.82 668.763 6.484C669.299 6.148 669.899 5.98 670.563 5.98C671.235 5.98 671.835 6.148 672.363 6.484C672.891 6.82 673.307 7.312 673.611 7.96C673.923 8.6 674.079 9.38 674.079 10.3C674.079 11.22 673.923 12.004 673.611 12.652C673.307 13.292 672.891 13.78 672.363 14.116C671.835 14.452 671.235 14.62 670.563 14.62ZM670.563 13.264C670.955 13.264 671.295 13.16 671.583 12.952C671.871 12.736 672.095 12.408 672.255 11.968C672.423 11.528 672.507 10.972 672.507 10.3C672.507 9.62 672.423 9.064 672.255 8.632C672.095 8.192 671.871 7.868 671.583 7.66C671.295 7.444 670.955 7.336 670.563 7.336C670.187 7.336 669.851 7.444 669.555 7.66C669.267 7.868 669.039 8.192 668.871 8.632C668.711 9.064 668.631 9.62 668.631 10.3C668.631 10.972 668.711 11.528 668.871 11.968C669.039 12.408 669.267 12.736 669.555 12.952C669.851 13.16 670.187 13.264 670.563 13.264ZM678.637 14.62C677.973 14.62 677.373 14.452 676.837 14.116C676.309 13.78 675.893 13.292 675.589 12.652C675.285 12.004 675.133 11.22 675.133 10.3C675.133 9.38 675.285 8.6 675.589 7.96C675.893 7.312 676.309 6.82 676.837 6.484C677.373 6.148 677.973 5.98 678.637 5.98C679.309 5.98 679.909 6.148 680.437 6.484C680.965 6.82 681.381 7.312 681.685 7.96C681.997 8.6 682.153 9.38 682.153 10.3C682.153 11.22 681.997 12.004 681.685 12.652C681.381 13.292 680.965 13.78 680.437 14.116C679.909 14.452 679.309 14.62 678.637 14.62ZM678.637 13.264C679.029 13.264 679.369 13.16 679.657 12.952C679.945 12.736 680.169 12.408 680.329 11.968C680.497 11.528 680.581 10.972 680.581 10.3C680.581 9.62 680.497 9.064 680.329 8.632C680.169 8.192 679.945 7.868 679.657 7.66C679.369 7.444 679.029 7.336 678.637 7.336C678.261 7.336 677.925 7.444 677.629 7.66C677.341 7.868 677.113 8.192 676.945 8.632C676.785 9.064 676.705 9.62 676.705 10.3C676.705 10.972 676.785 11.528 676.945 11.968C677.113 12.408 677.341 12.736 677.629 12.952C677.925 13.16 678.261 13.264 678.637 13.264ZM685.2 12.52L685.116 10.672L689.52 6.1H691.272L687.612 9.988L686.748 10.936L685.2 12.52ZM683.808 14.5V6.1H685.368V14.5H683.808ZM689.664 14.5L686.448 10.672L687.48 9.532L691.488 14.5H689.664Z" fill="#CDD500"/>
</svg>
